<svg width="143" height="103" viewBox="0 0 143 103" xmlns="http://www.w3.org/2000/svg">
<path d="M49.1059 9.95623L49.0964 9.82802C49.0004 8.87783 48.7418 8.00016 48.5015 7.25436C47.9939 5.8917 47.2232 4.17153 45.6739 2.65136C45.5984 2.56784 45.4871 2.52755 45.3736 2.53634C45.3325 2.53634 45.2959 2.55099 45.257 2.55319C45.1076 2.60228 45.008 2.73634 45.005 2.86235C44.9318 4.78253 45.4468 6.49391 45.9354 7.94595C46.2357 8.75328 46.5368 9.53278 46.9156 10.3042C47.0423 10.6068 47.2056 10.913 47.3609 11.2163C47.602 11.6625 47.8246 12.0999 47.9697 12.5621C48.0114 12.6925 48.1367 12.7907 48.2906 12.8046C48.3104 12.8046 48.333 12.8076 48.355 12.8046C48.4839 12.8046 48.6092 12.7365 48.6737 12.6303C49.2443 11.757 49.1704 10.798 49.1059 9.95623Z" />
<path d="M107.945 3.54566C107.896 3.52808 107.841 3.5105 107.787 3.5105C107.7 3.5105 107.612 3.54566 107.541 3.61746C105.962 5.05704 104.878 6.72739 103.938 8.32447C103.49 9.13401 103.027 9.99922 102.643 10.8857C102.441 11.3216 102.268 11.7692 102.085 12.2183C101.923 12.6498 101.756 13.0879 101.547 13.5275C101.49 13.6491 101.52 13.7963 101.633 13.8857C101.701 13.9516 101.785 13.9824 101.876 13.9824C101.928 13.9824 101.982 13.978 102.032 13.9516C103.068 13.4842 103.764 12.6637 104.392 11.9362L104.462 11.8608C105.145 11.041 105.7 10.1589 106.144 9.4146C106.929 7.997 107.863 6.08122 108.151 3.88779C108.16 3.75006 108.086 3.61746 107.945 3.54566Z" />
<path d="M126.655 11.183C126.581 11.1295 126.493 11.098 126.403 11.098C126.337 11.098 126.261 11.1112 126.2 11.1508C124.06 12.4621 122.373 14.164 120.862 15.8036C120.17 16.5977 119.376 17.5281 118.656 18.501C118.324 18.9194 118.011 19.3787 117.704 19.8329C117.361 20.3186 117.018 20.8263 116.633 21.2989C116.53 21.4227 116.519 21.5978 116.602 21.7406C116.674 21.8608 116.795 21.9289 116.926 21.9289C116.951 21.9289 116.985 21.9231 117.014 21.9143C118.266 21.6278 119.268 20.8483 120.146 20.167L120.271 20.0637C121.247 19.2849 122.083 18.4285 122.85 17.6051C124.142 16.134 125.741 14.1376 126.764 11.6277C126.825 11.4709 126.779 11.298 126.655 11.183Z" />
<path d="M140.308 31.0036C140.262 30.8388 140.111 30.7325 139.946 30.7325H139.838C137.092 30.7325 134.511 31.3428 132.342 31.9311C129.563 32.7567 127.308 33.6879 125.247 34.8681C125.102 34.9575 125.031 35.1223 125.062 35.2879C125.1 35.444 125.233 35.5634 125.403 35.5868C125.739 35.6125 126.069 35.6352 126.401 35.6352C127.41 35.6352 128.417 35.4967 129.347 35.3538C130.638 35.1568 131.908 34.8322 133.08 34.5121C135.25 33.8652 137.79 32.9875 140.154 31.4366C140.293 31.3428 140.358 31.1699 140.308 31.0036Z" />
<path d="M142.122 54.1359C139.669 52.7901 137.129 52.1578 134.961 51.7168C133.784 51.5168 132.524 51.3197 131.23 51.2479C130.758 51.2304 130.298 51.204 129.821 51.204C128.861 51.204 128.078 51.2875 127.342 51.475C127.177 51.5241 127.061 51.6545 127.052 51.8194C127.041 51.9842 127.132 52.1359 127.28 52.2018C129.602 53.1564 131.95 53.8692 134.455 54.3542C136.084 54.6399 138.025 54.9432 140.063 54.9432C140.707 54.9432 141.359 54.9059 141.978 54.848C142.146 54.8311 142.277 54.7103 142.315 54.5418C142.35 54.3725 142.272 54.2121 142.122 54.1359Z" />
<path d="M137.033 74.676C135.093 72.6892 132.795 71.3932 131.019 70.4826C129.96 69.9917 128.831 69.484 127.616 69.1228L127.393 69.0518C126.506 68.7932 125.583 68.5265 124.592 68.5265C124.315 68.5265 124.055 68.5477 123.799 68.5888C123.636 68.6203 123.509 68.7404 123.485 68.9009C123.458 69.0708 123.536 69.2269 123.676 69.3067C124.254 69.6093 124.804 69.9624 125.334 70.3126C125.784 70.6071 126.233 70.9067 126.71 71.1734C127.663 71.758 128.641 72.2797 129.822 72.8951C131.904 73.8841 134.16 74.8607 136.685 75.3193C136.711 75.3237 136.734 75.3237 136.757 75.3237C136.897 75.3237 137.033 75.2526 137.095 75.1273C137.171 74.9749 137.151 74.7976 137.033 74.676Z" />
<path d="M118.669 82.8597C118.075 82.1916 117.346 81.4429 116.481 80.8092L116.332 80.7125C115.548 80.1505 114.656 79.5256 113.526 79.5256C113.524 79.5256 113.486 79.5256 113.486 79.5256C113.323 79.5256 113.188 79.6238 113.134 79.7711C113.076 79.9095 113.112 80.0744 113.221 80.1813C113.633 80.5879 113.948 81.0377 114.266 81.5271C114.474 81.8216 114.672 82.1213 114.897 82.4004C115.421 83.1542 115.995 83.8495 116.649 84.6114C117.803 85.9081 119.193 87.3748 121.092 88.484C121.157 88.5067 121.217 88.5287 121.284 88.5287C121.368 88.5287 121.451 88.503 121.517 88.4495C121.642 88.3514 121.693 88.1953 121.651 88.0393C120.996 85.8048 119.714 84.0898 118.669 82.8597Z" />
<path d="M102.882 91.839C102.472 91.1752 101.981 90.4126 101.319 89.7312C100.721 89.1246 99.9636 88.3664 98.894 88.1891C98.8698 88.1891 98.8515 88.1788 98.831 88.1788C98.7021 88.1788 98.5885 88.2426 98.5189 88.3363C98.4346 88.4565 98.4259 88.6213 98.4947 88.7451C98.7241 89.1649 98.891 89.5928 99.0544 90.0118C99.1819 90.351 99.3138 90.6675 99.4647 90.9965C99.7681 91.7012 100.122 92.3789 100.552 93.1628C101.339 94.4691 102.291 95.9394 103.817 97.138C103.886 97.1907 103.973 97.2229 104.055 97.2229C104.113 97.2229 104.17 97.2098 104.223 97.1775C104.362 97.1152 104.438 96.9812 104.438 96.8259C104.38 95.2031 103.908 93.6742 102.882 91.839Z" />
<path d="M31.8874 13.6282L31.7541 13.2904C31.286 12.1541 30.6999 11.1292 30.1365 10.1834C28.6105 7.80389 27.1974 6.15038 25.5513 4.85C25.4912 4.79652 25.4062 4.76648 25.3264 4.76648C25.2568 4.76648 25.1879 4.78333 25.1279 4.82729C24.9989 4.90787 24.9359 5.06832 24.9806 5.21118C25.7132 7.59949 26.9168 9.67571 27.9908 11.4369C28.5879 12.3637 29.223 13.3314 29.9065 14.2494C30.1322 14.5871 30.39 14.9315 30.6508 15.2648C31.0896 15.8267 31.5021 16.3608 31.7988 16.9755C31.8589 17.1015 31.9878 17.1725 32.1262 17.1725C32.1394 17.1725 32.1555 17.1681 32.1702 17.1681C32.3262 17.155 32.4508 17.0333 32.4757 16.8861C32.6925 15.7014 32.2625 14.6099 31.8874 13.6282Z" />
<path d="M19.9815 26.9897L19.7998 26.7354C19.3449 26.1779 18.8738 25.6614 18.3888 25.2109C17.3771 24.2409 16.2562 23.4101 15.2891 22.742C12.6246 20.9779 10.4188 19.9178 8.13085 19.3112C8.09716 19.2943 8.06126 19.2943 8.02976 19.2943C7.90301 19.2943 7.77628 19.3639 7.70522 19.476C7.61511 19.6145 7.63342 19.8005 7.7455 19.9295C9.6305 22.0116 11.8474 23.6197 13.7763 24.9523C14.873 25.6658 15.9434 26.3691 17.0298 27.0029L18.665 27.9831C18.7749 28.0498 18.8987 28.1259 19.0218 28.2014C19.4254 28.438 19.8012 28.66 20.043 29.0168C20.117 29.1194 20.2342 29.1728 20.3595 29.1728C20.3925 29.1728 20.4335 29.1641 20.4665 29.1472C20.6298 29.1106 20.7383 28.9677 20.7383 28.7948C20.7522 28.0556 20.3427 27.4842 19.9815 26.9897Z" />
<path d="M15.9974 42.2568C15.6157 41.6333 14.9724 41.3703 14.3995 41.1484L14.1006 41.0136C13.4054 40.7864 12.7395 40.6121 12.0904 40.4919C10.7021 40.2121 9.3182 40.1227 8.14676 40.0648C7.88668 40.0648 7.63611 40.0648 7.38629 40.0648C4.59872 40.0648 2.33718 40.3579 0.267567 41.0092C0.104928 41.0663 -0.00495606 41.2223 0.000172193 41.393C0.000172193 41.5608 0.118098 41.6985 0.277806 41.7564C2.98039 42.4971 5.60385 42.6531 8.05442 42.7476C8.72696 42.7564 9.38924 42.7689 10.0515 42.7689C10.6691 42.7689 11.2882 42.7557 11.9058 42.7418L13.8091 42.6898C13.8157 42.6898 13.8244 42.6898 13.8332 42.6898C13.9937 42.6898 14.1189 42.6751 14.2435 42.6715C14.3702 42.6715 14.4948 42.6671 14.6193 42.6671C14.8977 42.6671 15.2237 42.6898 15.5219 42.8048C15.5666 42.8312 15.6157 42.84 15.6692 42.84C15.7761 42.84 15.8831 42.796 15.9593 42.7022C16.0684 42.5769 16.0816 42.3997 15.9974 42.2568Z" />
<path d="M17.9261 57.1681C17.4514 56.8589 16.932 56.8201 16.5356 56.8201C16.351 56.8201 16.1679 56.8245 15.9869 56.8289L15.6792 56.856C14.9685 56.927 14.2916 57.0516 13.6388 57.2171C12.2769 57.538 10.9757 58.0369 9.88194 58.4904C6.95805 59.7784 4.8818 61.0663 3.13157 62.6656C3.00482 62.7784 2.97109 62.9601 3.04508 63.1081C3.10736 63.2458 3.24583 63.3308 3.39016 63.3308C3.40994 63.3308 3.43047 63.3308 3.45245 63.3308C6.21736 62.8627 8.76029 61.8604 10.9259 60.9557C12.1787 60.4025 13.2989 59.9 14.4154 59.3197L16.1166 58.4824C16.2389 58.4289 16.3679 58.3578 16.5019 58.2912C16.9159 58.0868 17.3085 57.8838 17.7269 57.867C17.8924 57.8626 18.0323 57.7468 18.0792 57.5908C18.1239 57.4311 18.0624 57.2604 17.9261 57.1681Z" />
<path d="M25.3571 71.147C25.215 71.1104 25.0633 71.0979 24.9095 71.0979C24.4325 71.0979 23.9849 71.2539 23.5952 71.3968L23.327 71.4935C22.7212 71.7572 22.168 72.0334 21.6449 72.3367C20.5394 72.969 19.5431 73.7397 18.7189 74.4086C17.2288 75.6877 15.3504 77.4518 13.9892 79.8372C13.9086 79.9933 13.9261 80.1662 14.0404 80.2907C14.1137 80.3669 14.2155 80.416 14.321 80.416C14.3767 80.416 14.428 80.4072 14.4771 80.3845C16.8522 79.3149 18.7929 77.7998 20.4288 76.4672C21.3197 75.7089 22.1805 74.9529 23.0105 74.128C23.3182 73.851 23.6216 73.5492 23.9219 73.2276C24.4194 72.7016 24.8963 72.2063 25.4751 71.843C25.6077 71.7572 25.6736 71.6005 25.645 71.4547C25.6245 71.2986 25.5058 71.1726 25.3571 71.147Z" />
<path d="M38.7692 81.2235C38.7135 81.0821 38.5882 80.9963 38.4417 80.9839C38.4329 80.9839 38.3523 80.9839 38.3442 80.9839C37.7662 80.9839 37.2944 81.2908 36.9157 81.5458L36.7325 81.6696C36.2578 82.022 35.8505 82.3956 35.4981 82.7612C34.7296 83.5282 34.1032 84.4206 33.5911 85.181C32.7017 86.6162 31.6387 88.5518 31.2709 90.9313C31.246 91.0829 31.32 91.2339 31.4577 91.3093C31.5156 91.3459 31.5844 91.3584 31.6496 91.3584C31.7339 91.3584 31.8226 91.3415 31.8922 91.2793C33.6475 89.8529 34.8468 88.1422 35.8358 86.6404C36.3091 85.8821 36.8468 85.0001 37.3179 84.0814C37.4944 83.7876 37.6542 83.4543 37.8102 83.1224C38.0725 82.5707 38.3223 82.0542 38.7054 81.6213C38.8021 81.5136 38.827 81.3531 38.7692 81.2235Z" />
<path d="M57.0521 90.0738C56.9766 89.9858 56.8653 89.936 56.7539 89.936C56.7092 89.936 56.6667 89.9448 56.6228 89.9573C55.4748 90.3588 54.7532 91.2943 54.1188 92.1148L53.8873 92.4086C53.1584 93.3844 52.5943 94.4042 52.0954 95.3581C51.2756 97.0563 50.3152 99.3288 50.0749 101.963C50.0573 102.123 50.1489 102.275 50.2976 102.345C50.3467 102.373 50.4046 102.377 50.4566 102.377C50.5591 102.377 50.6617 102.336 50.7342 102.257C52.2807 100.599 53.3547 98.7845 54.4909 96.5654C54.9275 95.6482 55.4272 94.5786 55.8389 93.5038C56.0111 93.1383 56.1561 92.7368 56.2982 92.3229C56.5275 91.6804 56.7392 91.0621 57.0828 90.5133C57.1678 90.3859 57.1524 90.2034 57.0521 90.0738Z" />
<path d="M117.292 48.037C117.024 42.9659 115.505 38.157 112.907 34.1606C111.503 31.9687 109.873 30.047 108.063 28.4514C106.087 26.7356 103.825 25.4162 101.333 24.5429C99.1654 23.759 96.8342 23.3634 94.41 23.3634C91.6005 23.3634 88.7418 23.9151 86.1454 24.9532C81.7629 26.7305 77.7424 29.7269 74.5189 33.6207C73.2017 35.2603 72.0925 36.9761 71.2112 38.7233C70.8376 38.02 70.4631 37.3834 70.0683 36.79C69.0697 35.239 67.8844 33.8222 66.5547 32.6038C65.0536 31.2192 63.4689 30.247 61.844 29.7078C61.748 29.6727 61.6454 29.6639 61.5517 29.6639C61.2 29.6639 60.8652 29.8543 60.7099 30.1943C60.5136 30.617 60.6726 31.121 61.0733 31.3752C62.4103 32.1826 63.4396 33.4024 64.3488 34.6105C65.1642 35.7152 65.8997 37.0164 66.6492 38.6735C67.8008 41.3395 68.6031 44.3161 69.0925 47.7704C69.269 48.9748 70.2383 49.9103 71.4522 50.0298C71.543 50.0481 71.6375 50.0576 71.7269 50.0576C73.0896 50.0576 74.2244 49.0268 74.3673 47.6671L74.3936 47.4004C74.7035 44.374 76.5329 40.9073 79.4054 37.8765C82.1373 34.935 85.333 32.7782 88.6598 31.6375C90.4759 30.9599 92.3052 30.6309 94.1074 30.6309C95.7638 30.6309 97.3566 30.9115 98.8409 31.469C100.672 32.1826 102.175 33.0368 103.282 34.0002C104.579 35.0955 105.812 36.5138 106.853 38.0904C108.99 41.3747 110.305 44.985 110.637 48.5235C111.002 52.3382 110.461 56.2364 109.086 59.7801C106.707 66.1619 101.96 72.373 94.1367 79.3401C93.7888 79.661 93.7287 80.1811 93.999 80.5658C94.1814 80.82 94.465 80.957 94.7543 80.957C94.9104 80.957 95.0635 80.9269 95.2063 80.8376C104.146 75.8543 110.573 69.5451 114.32 62.0673C116.534 57.4181 117.561 52.5697 117.292 48.037Z" />
<path d="M66.306 21.4404C67.6913 22.8565 69.6415 23.7577 71.6511 23.9306C71.865 23.9474 72.0731 23.9533 72.2819 23.9533C74.3947 23.9533 76.1962 23.1247 77.3354 22.4155C79.9259 20.7847 81.9699 18.4265 83.7728 14.9693C85.4659 11.5765 86.2007 8.58163 86.0359 5.80943C86.0117 5.39111 85.7113 5.04385 85.2989 4.96326C85.2359 4.95447 85.178 4.95007 85.1164 4.95007C84.7706 4.95007 84.4476 5.1281 84.2871 5.45411C82.9897 8.05122 81.3472 10.3553 79.7721 12.4593C77.8402 14.9312 76.087 16.6521 74.4247 17.7004C73.4599 18.296 72.5712 18.5913 71.7222 18.5913C70.9112 18.5913 70.1089 18.3275 69.2716 17.7759C67.4532 16.5905 65.8371 14.611 64.1264 12.526L63.7023 12.0132C63.525 11.8036 63.2612 11.6798 62.9924 11.6798C62.8583 11.6798 62.7294 11.7055 62.6048 11.7634C62.2217 11.9363 62.0099 12.3524 62.0817 12.7656C62.7382 16.4257 64.1162 19.2653 66.306 21.4404Z" />
<path d="M70.2676 8.69465C71.1452 9.46902 72.1078 9.98332 73.4045 10.3526C73.4909 10.3848 73.5737 10.3877 73.6609 10.3877C73.9327 10.3877 74.1913 10.2676 74.37 10.0449C75.4323 8.76572 75.7583 7.64702 75.9224 6.79572C76.0916 5.79863 76.0249 4.86089 75.7238 3.98761C75.4323 3.1158 74.9129 2.32531 74.1773 1.66157C73.2536 0.846168 72.2697 0.337002 70.9716 0.0212456C70.9005 0.00439554 70.8222 0 70.7518 0C70.4705 0 70.1987 0.124544 70.0185 0.351654C69.2053 1.41175 68.7424 2.41103 68.5255 3.59493C68.357 4.59422 68.4295 5.52097 68.7284 6.38619C69.0354 7.2536 69.5526 8.0353 70.2676 8.69465Z" />
<path d="M79.9903 84.4317C79.0606 83.1438 77.9492 82.1057 76.8847 81.187C74.4957 79.1584 71.9448 77.5906 69.9902 76.4631C66.9242 74.7034 63.7762 73.1796 60.7366 71.6982C59.1146 70.9239 57.4963 70.1444 55.9117 69.3326C50.809 66.8278 46.7006 64.5992 43.1628 61.7867C41.0918 60.1464 39.5005 58.583 38.3071 56.9918C37.0683 55.3339 35.9181 53.2562 34.9891 51.0071C34.058 48.7573 33.5049 46.5814 33.3488 44.5521C33.1862 42.3924 33.4426 40.2348 34.1092 38.1506C35.4528 34.0817 38.713 30.4662 42.831 28.4918C45.1797 27.316 47.7951 26.6962 50.4039 26.6962C52.5746 26.6962 54.6714 27.1101 56.6392 27.9307C56.7571 27.9798 56.8773 28.0032 56.9981 28.0032C57.3168 28.0032 57.6303 27.8413 57.7952 27.5438C58.0289 27.1336 57.9271 26.6259 57.5505 26.3394C54.8274 24.2801 51.2222 23.1541 47.401 23.1541C45.2573 23.1541 43.1335 23.5013 41.0976 24.1738C38.2836 25.127 35.6565 26.6515 33.488 28.5805C31.255 30.5908 29.4433 33.1366 28.247 35.9256C25.9971 41.0554 26.0213 47.5126 28.3165 53.6269C29.4814 56.5816 30.8323 59.0995 32.4506 61.3508C34.1488 63.6403 36.2185 65.7443 38.6178 67.5978C44.9365 72.3979 51.8714 75.392 58.5718 78.28C61.5022 79.5415 64.2693 80.7394 66.9916 82.0808C69.6342 83.3782 71.6298 84.5284 73.2738 85.7306C74.2137 86.4207 75.0759 87.1658 75.8408 87.9372C76.5023 88.6193 77.1243 89.5285 77.5471 90.4362C78.1339 91.716 78.9683 94.1403 77.8906 95.9894C77.1112 97.4114 75.0181 98.3161 72.2759 98.4458C71.8071 98.4714 71.4312 98.8414 71.396 99.3066C71.3594 99.7689 71.6789 100.178 72.1353 100.277C73.1316 100.474 74.032 100.58 74.8745 100.58C75.4196 100.58 75.9529 100.531 76.4701 100.447C78.1895 100.178 79.7317 99.3542 80.8145 98.119C82.1449 96.596 82.5683 94.7241 82.6892 93.4135C82.8255 91.8721 82.6379 90.2669 82.1236 88.6713C81.6159 87.1013 80.9412 85.7409 79.9903 84.4317Z" />
</svg>
