<svg width="1466" height="103" viewBox="0 0 1466 103" xmlns="http://www.w3.org/2000/svg">
<path d="M874.587 67.1581H873.341L847.654 40.2844V67.1581H843.502V31.5641H844.747L870.433 58.3183V31.5641H874.587V67.1581H874.587Z" />
<path d="M907.159 31.5641H908.109L925.668 67.1581H920.922L917.779 60.988H897.549L894.405 67.1581H889.719L907.159 31.5641ZM907.871 39.9877H907.397L899.863 56.4795L899.567 57.0136H915.762L915.466 56.4795L907.871 39.9877Z" />
<path d="M953.071 67.1581H940.732V31.5641H953.071C964.342 31.5641 972.054 38.4462 972.054 49.3607C972.054 60.2759 964.342 67.1581 953.071 67.1581ZM944.884 35.4198V63.3023H952.834C961.316 63.3023 967.842 58.1411 967.842 49.3614C967.842 40.5818 961.316 35.4206 952.834 35.4206H944.884V35.4198Z" />
<path d="M993.892 67.1581H989.74V31.5641H993.892V67.1581Z" />
<path d="M1045.08 67.1581H1043.83L1018.15 40.2844V67.1581H1013.99V31.5641H1015.24L1040.93 58.3183V31.5641H1045.08V67.1581H1045.08Z" />
<path d="M1088.7 51.5556H1069.37V63.3016H1091.32V67.1581H1065.21V31.5641H1091.32V35.4198H1069.37V47.7006H1088.7V51.5556Z" />
<path d="M1130.44 60.631C1130.44 60.631 1134.12 64.0713 1141.17 64.0713C1147.76 64.0713 1150.61 61.5797 1150.61 57.9606C1150.61 54.6389 1148.41 52.9774 1140.64 50.7832C1131.98 48.2909 1128.24 45.7399 1128.24 40.3413C1128.24 34.2907 1133.28 30.791 1141.41 30.791C1150.07 30.791 1153.99 34.172 1153.99 34.172L1151.73 37.6123C1151.73 37.6123 1148.12 34.7054 1141.41 34.7054C1136.31 34.7054 1132.45 36.6636 1132.45 40.3406C1132.45 43.2483 1134.77 44.7311 1142.48 46.8659C1151.97 49.4762 1154.82 52.6206 1154.82 57.9005C1154.82 63.6552 1150.73 67.9856 1141.23 67.9856C1132.22 67.9856 1128.18 63.7739 1128.18 63.7739L1130.44 60.631Z" />
<path d="M1195.73 51.5556H1176.39V63.3016H1198.34V67.1581H1172.24V31.5641H1198.34V35.4198H1176.39V47.7006H1195.73V51.5556Z" />
<path d="M1215.11 52.2677V31.5641H1219.26V52.2677C1219.26 59.0898 1222.88 64.073 1230.06 64.073C1237.29 64.073 1240.85 59.0898 1240.85 52.2677V31.5641H1245V52.2677C1245 61.5814 1239.61 67.9881 1230.06 67.9881C1220.62 67.9881 1215.11 61.5814 1215.11 52.2677Z" />
<path d="M1264.61 31.5641H1290.71V35.4198H1268.76V47.7006H1288.1V51.5563H1268.76V67.1587H1264.61V31.5641Z" />
<path d="M1307.47 31.5641H1333.57V35.4198H1311.62V47.7006H1330.96V51.5563H1311.62V67.1587H1307.47V31.5641Z" />
<path d="M1373.88 51.5556H1354.54V63.3016H1376.49V67.1581H1350.39V31.5641H1376.49V35.4198H1354.54V47.7006H1373.88V51.5556Z" />
<path d="M1393.82 31.5641H1408.35C1417.25 31.5641 1422.59 35.7165 1422.59 43.428C1422.59 49.3014 1419.27 53.0978 1414.22 54.5813V54.7593L1423.6 66.1492V67.1581H1419.09L1409.3 55.3527H1397.97V67.1581H1393.82V31.5641H1393.82ZM1408.29 35.4198H1397.97V51.497H1408.82C1414.34 51.497 1418.32 49.0047 1418.32 43.5474C1418.32 38.0301 1414.34 35.4198 1408.29 35.4198Z" />
<path d="M1436.1 31.5641H1465.23V35.4198H1452.71V67.1581H1448.56V35.4198H1436.1V31.5641Z" />
<path d="M30.6899 67.1556H23.7872V53.2367H6.90267V67.1556H0V32.9287H6.90267V47.6461H23.7872V32.9287H30.6899V67.1556Z" />
<path d="M75.1176 52.951H58.9166V61.1086H78.5967V67.1556H52.0146V32.9287H78.5975V38.975H58.9166V47.304H75.1176V52.951Z" />
<path d="M97.8071 32.9287H113.267C121.937 32.9287 127.299 37.2072 127.299 44.6798C127.299 49.7568 124.789 53.2367 120.853 55.1188V55.6323L129.01 66.4706V67.1556H121.196L113.609 56.7159H104.71V67.1556H97.8079V32.9287H97.8071ZM113.038 38.975H104.709V50.8975H113.209C117.544 50.8975 120.168 48.9582 120.168 44.9648C120.168 41.0292 117.487 38.975 113.038 38.975Z" />
<path d="M144.948 65.3306L162.403 38.975H145.575V32.9287H173.413V34.8108L156.585 61.1086H173.241V67.1556H144.948V65.3306Z" />
<path d="M199.21 49.0718L214.84 32.9287H223.282V33.6701L209.934 47.5326L223.282 66.4134V67.1556H214.954C212.843 64.0749 208.28 57.343 205.085 52.5517L199.209 58.6558V67.1556H192.307V32.9287H199.209V49.0718H199.21Z" />
<path d="M241.028 32.9287H256.487C265.158 32.9287 270.52 37.2072 270.52 44.6798C270.52 49.7568 268.01 53.2367 264.074 55.1188V55.6323L272.231 66.4706V67.1556H264.416L256.83 56.7159H247.931V67.1556H241.029V32.9287H241.028ZM256.259 38.975H247.93V50.8975H256.43C260.765 50.8975 263.39 48.9582 263.39 44.9648C263.39 41.0292 260.709 38.975 256.259 38.975Z" />
<path d="M303.532 32.9287H304.73L322.357 67.1556H314.542L312.317 62.4779H295.945L293.778 67.1556H285.963L303.532 32.9287ZM304.331 45.4212H303.874L298.684 56.6023L298.285 57.3437H309.921L309.522 56.6023L304.331 45.4212Z" />
<path d="M338.986 32.9287H365.569V38.975H345.889V47.304H362.774V52.951H345.889V67.1556H338.986V32.9287Z" />
<path d="M380.76 32.9287H409.966V38.975H398.843V67.1556H391.941V38.975H380.76V32.9287Z" />
<path d="M467.771 32.9287H475.757L462.808 54.0917V67.1556H455.906V54.0352L443.07 32.9287H451.057L458.13 44.8505L459.1 47.0176H459.727L460.754 44.8505L467.771 32.9287Z" />
<path d="M488.726 50.0411C488.726 40.1728 495.627 32.1866 506.809 32.1866C518.046 32.1866 524.949 40.1728 524.949 50.0411C524.949 59.9101 518.046 67.8963 506.809 67.8963C495.628 67.8963 488.726 59.9094 488.726 50.0411ZM517.875 50.0411C517.875 43.5392 513.255 38.8036 506.809 38.8036C500.42 38.8036 495.857 43.5392 495.857 50.0411C495.857 56.5445 500.42 61.2794 506.809 61.2794C513.255 61.2787 517.875 56.5445 517.875 50.0411Z" />
<path d="M559.248 47.3034H576.362V50.6682C576.362 60.8222 570.771 67.8963 560.104 67.8963C548.867 67.8963 542.021 59.9101 542.021 50.0411C542.021 40.1728 548.924 32.1866 560.218 32.1866C569.175 32.1866 572.996 36.5222 572.996 36.5222L568.946 41.7699C568.946 41.7699 565.523 38.8036 560.104 38.8036C553.601 38.8036 549.152 43.5392 549.152 50.0411C549.152 56.5445 553.544 61.3358 560.047 61.3358C565.58 61.3358 568.889 57.8566 569.06 53.4075V52.9511H559.248V47.3034H559.248Z" />
<path d="M607.167 32.9287H608.366L625.993 67.1556H618.178L615.953 62.4779H599.581L597.413 67.1556H589.599L607.167 32.9287ZM607.966 45.4212H607.509L602.318 56.6023L601.919 57.3437H613.556L613.156 56.6023L607.966 45.4212Z" />
<path d="M710.106 9.95623L710.096 9.82802C710 8.87783 709.742 8.00016 709.502 7.25436C708.994 5.8917 708.223 4.17153 706.674 2.65136C706.598 2.56784 706.487 2.52755 706.374 2.53634C706.333 2.53634 706.296 2.55099 706.257 2.55319C706.108 2.60228 706.008 2.73634 706.005 2.86235C705.932 4.78253 706.447 6.49391 706.935 7.94595C707.236 8.75328 707.537 9.53278 707.916 10.3042C708.042 10.6068 708.206 10.913 708.361 11.2163C708.602 11.6625 708.825 12.0999 708.97 12.5621C709.011 12.6925 709.137 12.7907 709.291 12.8046C709.31 12.8046 709.333 12.8076 709.355 12.8046C709.484 12.8046 709.609 12.7365 709.674 12.6303C710.244 11.757 710.17 10.798 710.106 9.95623Z" />
<path d="M768.945 3.54566C768.896 3.52808 768.841 3.5105 768.787 3.5105C768.7 3.5105 768.612 3.54566 768.541 3.61746C766.962 5.05704 765.878 6.72739 764.938 8.32447C764.49 9.13401 764.027 9.99922 763.643 10.8857C763.441 11.3216 763.268 11.7692 763.085 12.2183C762.923 12.6498 762.756 13.0879 762.547 13.5275C762.49 13.6491 762.52 13.7963 762.633 13.8857C762.701 13.9516 762.785 13.9824 762.876 13.9824C762.928 13.9824 762.982 13.978 763.032 13.9516C764.068 13.4842 764.764 12.6637 765.392 11.9362L765.462 11.8608C766.145 11.041 766.7 10.1589 767.144 9.4146C767.929 7.997 768.863 6.08122 769.151 3.88779C769.16 3.75006 769.086 3.61746 768.945 3.54566Z" />
<path d="M787.655 11.183C787.581 11.1295 787.493 11.098 787.403 11.098C787.337 11.098 787.261 11.1112 787.2 11.1508C785.06 12.4621 783.373 14.164 781.862 15.8036C781.17 16.5977 780.376 17.5281 779.656 18.501C779.324 18.9194 779.011 19.3787 778.704 19.8329C778.361 20.3186 778.018 20.8263 777.633 21.2989C777.53 21.4227 777.519 21.5978 777.602 21.7406C777.674 21.8608 777.795 21.9289 777.926 21.9289C777.951 21.9289 777.985 21.9231 778.014 21.9143C779.266 21.6278 780.268 20.8483 781.146 20.167L781.271 20.0637C782.247 19.2849 783.083 18.4285 783.85 17.6051C785.142 16.134 786.741 14.1376 787.764 11.6277C787.825 11.4709 787.779 11.298 787.655 11.183Z" />
<path d="M801.308 31.0036C801.262 30.8388 801.111 30.7325 800.946 30.7325H800.838C798.092 30.7325 795.511 31.3428 793.342 31.9311C790.563 32.7567 788.308 33.6879 786.247 34.8681C786.102 34.9575 786.031 35.1223 786.062 35.2879C786.1 35.444 786.233 35.5634 786.403 35.5868C786.739 35.6125 787.069 35.6352 787.401 35.6352C788.41 35.6352 789.417 35.4967 790.347 35.3538C791.638 35.1568 792.908 34.8322 794.08 34.5121C796.25 33.8652 798.79 32.9875 801.154 31.4366C801.293 31.3428 801.358 31.1699 801.308 31.0036Z" />
<path d="M803.122 54.1359C800.669 52.7901 798.129 52.1578 795.961 51.7168C794.784 51.5168 793.524 51.3197 792.23 51.2479C791.758 51.2304 791.298 51.204 790.821 51.204C789.861 51.204 789.078 51.2875 788.342 51.475C788.177 51.5241 788.061 51.6545 788.052 51.8194C788.041 51.9842 788.132 52.1359 788.28 52.2018C790.602 53.1564 792.95 53.8692 795.455 54.3542C797.084 54.6399 799.025 54.9432 801.063 54.9432C801.707 54.9432 802.359 54.9059 802.978 54.848C803.146 54.8311 803.277 54.7103 803.315 54.5418C803.35 54.3725 803.272 54.2121 803.122 54.1359Z" />
<path d="M798.033 74.676C796.093 72.6892 793.795 71.3932 792.019 70.4826C790.96 69.9917 789.831 69.484 788.616 69.1228L788.393 69.0518C787.506 68.7932 786.583 68.5265 785.592 68.5265C785.315 68.5265 785.055 68.5477 784.799 68.5888C784.636 68.6203 784.509 68.7404 784.485 68.9009C784.458 69.0708 784.536 69.2269 784.676 69.3067C785.254 69.6093 785.804 69.9624 786.334 70.3126C786.784 70.6071 787.233 70.9067 787.71 71.1734C788.663 71.758 789.641 72.2797 790.822 72.8951C792.904 73.8841 795.16 74.8607 797.685 75.3193C797.711 75.3237 797.734 75.3237 797.757 75.3237C797.897 75.3237 798.033 75.2526 798.095 75.1273C798.171 74.9749 798.151 74.7976 798.033 74.676Z" />
<path d="M779.669 82.8597C779.075 82.1916 778.346 81.4429 777.481 80.8092L777.332 80.7125C776.548 80.1505 775.656 79.5256 774.526 79.5256C774.524 79.5256 774.486 79.5256 774.486 79.5256C774.323 79.5256 774.188 79.6238 774.134 79.7711C774.076 79.9095 774.112 80.0744 774.221 80.1813C774.633 80.5879 774.948 81.0377 775.266 81.5271C775.474 81.8216 775.672 82.1213 775.897 82.4004C776.421 83.1542 776.995 83.8495 777.649 84.6114C778.803 85.9081 780.193 87.3748 782.092 88.484C782.157 88.5067 782.217 88.5287 782.284 88.5287C782.368 88.5287 782.451 88.503 782.517 88.4495C782.642 88.3514 782.693 88.1953 782.651 88.0393C781.996 85.8048 780.714 84.0898 779.669 82.8597Z" />
<path d="M763.882 91.839C763.472 91.1752 762.981 90.4126 762.319 89.7312C761.721 89.1246 760.964 88.3664 759.894 88.1891C759.87 88.1891 759.852 88.1788 759.831 88.1788C759.702 88.1788 759.588 88.2426 759.519 88.3363C759.435 88.4565 759.426 88.6213 759.495 88.7451C759.724 89.1649 759.891 89.5928 760.054 90.0118C760.182 90.351 760.314 90.6675 760.465 90.9965C760.768 91.7012 761.122 92.3789 761.552 93.1628C762.339 94.4691 763.291 95.9394 764.817 97.138C764.886 97.1907 764.973 97.2229 765.055 97.2229C765.113 97.2229 765.17 97.2098 765.223 97.1775C765.362 97.1152 765.438 96.9812 765.438 96.8259C765.38 95.2031 764.908 93.6742 763.882 91.839Z" />
<path d="M692.887 13.6282L692.754 13.2904C692.286 12.1541 691.7 11.1292 691.137 10.1834C689.611 7.80389 688.197 6.15038 686.551 4.85C686.491 4.79652 686.406 4.76648 686.326 4.76648C686.257 4.76648 686.188 4.78333 686.128 4.82729C685.999 4.90787 685.936 5.06832 685.981 5.21118C686.713 7.59949 687.917 9.67571 688.991 11.4369C689.588 12.3637 690.223 13.3314 690.907 14.2494C691.132 14.5871 691.39 14.9315 691.651 15.2648C692.09 15.8267 692.502 16.3608 692.799 16.9755C692.859 17.1015 692.988 17.1725 693.126 17.1725C693.139 17.1725 693.156 17.1681 693.17 17.1681C693.326 17.155 693.451 17.0333 693.476 16.8861C693.693 15.7014 693.262 14.6099 692.887 13.6282Z" />
<path d="M680.981 26.9897L680.8 26.7354C680.345 26.1779 679.874 25.6614 679.389 25.2109C678.377 24.2409 677.256 23.4101 676.289 22.742C673.625 20.9779 671.419 19.9178 669.131 19.3112C669.097 19.2943 669.061 19.2943 669.03 19.2943C668.903 19.2943 668.776 19.3639 668.705 19.476C668.615 19.6145 668.633 19.8005 668.746 19.9295C670.63 22.0116 672.847 23.6197 674.776 24.9523C675.873 25.6658 676.943 26.3691 678.03 27.0029L679.665 27.9831C679.775 28.0498 679.899 28.1259 680.022 28.2014C680.425 28.438 680.801 28.66 681.043 29.0168C681.117 29.1194 681.234 29.1728 681.359 29.1728C681.392 29.1728 681.433 29.1641 681.466 29.1472C681.63 29.1106 681.738 28.9677 681.738 28.7948C681.752 28.0556 681.343 27.4842 680.981 26.9897Z" />
<path d="M676.997 42.2568C676.616 41.6333 675.972 41.3703 675.4 41.1484L675.101 41.0136C674.405 40.7864 673.739 40.6121 673.09 40.4919C671.702 40.2121 670.318 40.1227 669.147 40.0648C668.887 40.0648 668.636 40.0648 668.386 40.0648C665.599 40.0648 663.337 40.3579 661.268 41.0092C661.105 41.0663 660.995 41.2223 661 41.393C661 41.5608 661.118 41.6985 661.278 41.7564C663.98 42.4971 666.604 42.6531 669.054 42.7476C669.727 42.7564 670.389 42.7689 671.052 42.7689C671.669 42.7689 672.288 42.7557 672.906 42.7418L674.809 42.6898C674.816 42.6898 674.824 42.6898 674.833 42.6898C674.994 42.6898 675.119 42.6751 675.243 42.6715C675.37 42.6715 675.495 42.6671 675.619 42.6671C675.898 42.6671 676.224 42.6898 676.522 42.8048C676.567 42.8312 676.616 42.84 676.669 42.84C676.776 42.84 676.883 42.796 676.959 42.7022C677.068 42.5769 677.082 42.3997 676.997 42.2568Z" />
<path d="M678.926 57.1681C678.451 56.8589 677.932 56.8201 677.536 56.8201C677.351 56.8201 677.168 56.8245 676.987 56.8289L676.679 56.856C675.969 56.927 675.292 57.0516 674.639 57.2171C673.277 57.538 671.976 58.0369 670.882 58.4904C667.958 59.7784 665.882 61.0663 664.132 62.6656C664.005 62.7784 663.971 62.9601 664.045 63.1081C664.107 63.2458 664.246 63.3308 664.39 63.3308C664.41 63.3308 664.43 63.3308 664.452 63.3308C667.217 62.8627 669.76 61.8604 671.926 60.9557C673.179 60.4025 674.299 59.9 675.415 59.3197L677.117 58.4824C677.239 58.4289 677.368 58.3578 677.502 58.2912C677.916 58.0868 678.309 57.8838 678.727 57.867C678.892 57.8626 679.032 57.7468 679.079 57.5908C679.124 57.4311 679.062 57.2604 678.926 57.1681Z" />
<path d="M686.357 71.147C686.215 71.1104 686.063 71.0979 685.909 71.0979C685.433 71.0979 684.985 71.2539 684.595 71.3968L684.327 71.4935C683.721 71.7572 683.168 72.0334 682.645 72.3367C681.539 72.969 680.543 73.7397 679.719 74.4086C678.229 75.6877 676.35 77.4518 674.989 79.8372C674.909 79.9933 674.926 80.1662 675.04 80.2907C675.114 80.3669 675.216 80.416 675.321 80.416C675.377 80.416 675.428 80.4072 675.477 80.3845C677.852 79.3149 679.793 77.7998 681.429 76.4672C682.32 75.7089 683.18 74.9529 684.011 74.128C684.318 73.851 684.622 73.5492 684.922 73.2276C685.419 72.7016 685.896 72.2063 686.475 71.843C686.608 71.7572 686.674 71.6005 686.645 71.4547C686.625 71.2986 686.506 71.1726 686.357 71.147Z" />
<path d="M699.769 81.2235C699.713 81.0821 699.588 80.9963 699.442 80.9839C699.433 80.9839 699.352 80.9839 699.344 80.9839C698.766 80.9839 698.294 81.2908 697.916 81.5458L697.733 81.6696C697.258 82.022 696.85 82.3956 696.498 82.7612C695.73 83.5282 695.103 84.4206 694.591 85.181C693.702 86.6162 692.639 88.5518 692.271 90.9313C692.246 91.0829 692.32 91.2339 692.458 91.3093C692.516 91.3459 692.584 91.3584 692.65 91.3584C692.734 91.3584 692.823 91.3415 692.892 91.2793C694.647 89.8529 695.847 88.1422 696.836 86.6404C697.309 85.8821 697.847 85.0001 698.318 84.0814C698.494 83.7876 698.654 83.4543 698.81 83.1224C699.072 82.5707 699.322 82.0542 699.705 81.6213C699.802 81.5136 699.827 81.3531 699.769 81.2235Z" />
<path d="M718.052 90.0738C717.977 89.9858 717.865 89.936 717.754 89.936C717.709 89.936 717.667 89.9448 717.623 89.9573C716.475 90.3588 715.753 91.2943 715.119 92.1148L714.887 92.4086C714.158 93.3844 713.594 94.4042 713.095 95.3581C712.276 97.0563 711.315 99.3288 711.075 101.963C711.057 102.123 711.149 102.275 711.298 102.345C711.347 102.373 711.405 102.377 711.457 102.377C711.559 102.377 711.662 102.336 711.734 102.257C713.281 100.599 714.355 98.7845 715.491 96.5654C715.928 95.6482 716.427 94.5786 716.839 93.5038C717.011 93.1383 717.156 92.7368 717.298 92.3229C717.528 91.6804 717.739 91.0621 718.083 90.5133C718.168 90.3859 718.152 90.2034 718.052 90.0738Z" />
<path d="M778.292 48.037C778.024 42.9659 776.505 38.157 773.907 34.1606C772.503 31.9687 770.873 30.047 769.063 28.4514C767.087 26.7356 764.825 25.4162 762.333 24.5429C760.165 23.759 757.834 23.3634 755.41 23.3634C752.6 23.3634 749.742 23.9151 747.145 24.9532C742.763 26.7305 738.742 29.7269 735.519 33.6207C734.202 35.2603 733.093 36.9761 732.211 38.7233C731.838 38.02 731.463 37.3834 731.068 36.79C730.07 35.239 728.884 33.8222 727.555 32.6038C726.054 31.2192 724.469 30.247 722.844 29.7078C722.748 29.6727 722.645 29.6639 722.552 29.6639C722.2 29.6639 721.865 29.8543 721.71 30.1943C721.514 30.617 721.673 31.121 722.073 31.3752C723.41 32.1826 724.44 33.4024 725.349 34.6105C726.164 35.7152 726.9 37.0164 727.649 38.6735C728.801 41.3395 729.603 44.3161 730.092 47.7704C730.269 48.9748 731.238 49.9103 732.452 50.0298C732.543 50.0481 732.638 50.0576 732.727 50.0576C734.09 50.0576 735.224 49.0268 735.367 47.6671L735.394 47.4004C735.704 44.374 737.533 40.9073 740.405 37.8765C743.137 34.935 746.333 32.7782 749.66 31.6375C751.476 30.9599 753.305 30.6309 755.107 30.6309C756.764 30.6309 758.357 30.9115 759.841 31.469C761.672 32.1826 763.175 33.0368 764.282 34.0002C765.579 35.0955 766.812 36.5138 767.853 38.0904C769.99 41.3747 771.305 44.985 771.637 48.5235C772.002 52.3382 771.461 56.2364 770.086 59.7801C767.707 66.1619 762.96 72.373 755.137 79.3401C754.789 79.661 754.729 80.1811 754.999 80.5658C755.181 80.82 755.465 80.957 755.754 80.957C755.91 80.957 756.063 80.9269 756.206 80.8376C765.146 75.8543 771.573 69.5451 775.32 62.0673C777.534 57.4181 778.561 52.5697 778.292 48.037Z" />
<path d="M727.306 21.4404C728.691 22.8565 730.642 23.7577 732.651 23.9306C732.865 23.9474 733.073 23.9533 733.282 23.9533C735.395 23.9533 737.196 23.1247 738.335 22.4155C740.926 20.7847 742.97 18.4265 744.773 14.9693C746.466 11.5765 747.201 8.58163 747.036 5.80943C747.012 5.39111 746.711 5.04385 746.299 4.96326C746.236 4.95447 746.178 4.95007 746.116 4.95007C745.771 4.95007 745.448 5.1281 745.287 5.45411C743.99 8.05122 742.347 10.3553 740.772 12.4593C738.84 14.9312 737.087 16.6521 735.425 17.7004C734.46 18.296 733.571 18.5913 732.722 18.5913C731.911 18.5913 731.109 18.3275 730.272 17.7759C728.453 16.5905 726.837 14.611 725.126 12.526L724.702 12.0132C724.525 11.8036 724.261 11.6798 723.992 11.6798C723.858 11.6798 723.729 11.7055 723.605 11.7634C723.222 11.9363 723.01 12.3524 723.082 12.7656C723.738 16.4257 725.116 19.2653 727.306 21.4404Z" />
<path d="M731.268 8.69465C732.145 9.46902 733.108 9.98332 734.404 10.3526C734.491 10.3848 734.574 10.3877 734.661 10.3877C734.933 10.3877 735.191 10.2676 735.37 10.0449C736.432 8.76572 736.758 7.64702 736.922 6.79572C737.092 5.79863 737.025 4.86089 736.724 3.98761C736.432 3.1158 735.913 2.32531 735.177 1.66157C734.254 0.846168 733.27 0.337002 731.972 0.0212456C731.901 0.00439554 731.822 0 731.752 0C731.471 0 731.199 0.124544 731.018 0.351654C730.205 1.41175 729.742 2.41103 729.526 3.59493C729.357 4.59422 729.43 5.52097 729.728 6.38619C730.035 7.2536 730.553 8.0353 731.268 8.69465Z" />
<path d="M740.99 84.4317C740.061 83.1438 738.949 82.1057 737.885 81.187C735.496 79.1584 732.945 77.5906 730.99 76.4631C727.924 74.7034 724.776 73.1796 721.737 71.6982C720.115 70.9239 718.496 70.1444 716.912 69.3326C711.809 66.8278 707.701 64.5992 704.163 61.7867C702.092 60.1464 700.501 58.583 699.307 56.9918C698.068 55.3339 696.918 53.2562 695.989 51.0071C695.058 48.7573 694.505 46.5814 694.349 44.5521C694.186 42.3924 694.443 40.2348 695.109 38.1506C696.453 34.0817 699.713 30.4662 703.831 28.4918C706.18 27.316 708.795 26.6962 711.404 26.6962C713.575 26.6962 715.671 27.1101 717.639 27.9307C717.757 27.9798 717.877 28.0032 717.998 28.0032C718.317 28.0032 718.63 27.8413 718.795 27.5438C719.029 27.1336 718.927 26.6259 718.551 26.3394C715.827 24.2801 712.222 23.1541 708.401 23.1541C706.257 23.1541 704.134 23.5013 702.098 24.1738C699.284 25.127 696.657 26.6515 694.488 28.5805C692.255 30.5908 690.443 33.1366 689.247 35.9256C686.997 41.0554 687.021 47.5126 689.317 53.6269C690.481 56.5816 691.832 59.0995 693.451 61.3508C695.149 63.6403 697.218 65.7443 699.618 67.5978C705.936 72.3979 712.871 75.392 719.572 78.28C722.502 79.5415 725.269 80.7394 727.992 82.0808C730.634 83.3782 732.63 84.5284 734.274 85.7306C735.214 86.4207 736.076 87.1658 736.841 87.9372C737.502 88.6193 738.124 89.5285 738.547 90.4362C739.134 91.716 739.968 94.1403 738.891 95.9894C738.111 97.4114 736.018 98.3161 733.276 98.4458C732.807 98.4714 732.431 98.8414 732.396 99.3066C732.359 99.7689 732.679 100.178 733.135 100.277C734.132 100.474 735.032 100.58 735.875 100.58C736.42 100.58 736.953 100.531 737.47 100.447C739.19 100.178 740.732 99.3542 741.814 98.119C743.145 96.596 743.568 94.7241 743.689 93.4135C743.825 91.8721 743.638 90.2669 743.124 88.6713C742.616 87.1013 741.941 85.7409 740.99 84.4317Z" />
</svg>
