<svg width="490" height="315" viewBox="0 0 490 315" xmlns="http://www.w3.org/2000/svg">
<path d="M65.0232 314.465H64.2205L47.6748 297.155V314.465H45V291.538H45.8018L62.3475 308.771V291.538H65.0228V314.465H65.0232Z" />
<path d="M86.0027 291.538H86.6143L97.9247 314.465H94.8678L92.8429 310.491H79.8122L77.7873 314.465H74.7686L86.0027 291.538ZM86.4613 296.964H86.156L81.303 307.587L81.1123 307.931H91.5437L91.3531 307.587L86.4613 296.964Z" />
<path d="M115.58 314.465H107.632V291.538H115.58C122.84 291.538 127.808 295.971 127.808 303.001C127.808 310.032 122.84 314.465 115.58 314.465ZM110.307 294.022V311.982H115.427C120.891 311.982 125.094 308.657 125.094 303.002C125.094 297.347 120.891 294.022 115.427 294.022H110.307V294.022Z" />
<path d="M141.871 314.465H139.196V291.538H141.871V314.465Z" />
<path d="M174.847 314.465H174.045L157.499 297.155V314.465H154.824V291.538H155.626L172.172 308.771V291.538H174.847V314.465H174.847Z" />
<path d="M202.934 304.415H190.477V311.981H204.616V314.465H187.803V291.538H204.616V294.022H190.477V301.932H202.934V304.415Z" />
<path d="M229.837 310.262C229.837 310.262 232.206 312.478 236.753 312.478C240.994 312.478 242.829 310.873 242.829 308.542C242.829 306.402 241.415 305.332 236.409 303.919C230.83 302.313 228.423 300.67 228.423 297.193C228.423 293.295 231.671 291.041 236.906 291.041C242.484 291.041 245.007 293.219 245.007 293.219L243.555 295.435C243.555 295.435 241.224 293.563 236.906 293.563C233.62 293.563 231.135 294.824 231.135 297.192C231.135 299.065 232.626 300.02 237.593 301.396C243.707 303.077 245.542 305.102 245.542 308.503C245.542 312.21 242.905 315 236.791 315C230.983 315 228.385 312.287 228.385 312.287L229.837 310.262Z" />
<path d="M271.871 304.415H259.414V311.981H273.552V314.465H256.739V291.538H273.552V294.022H259.414V301.932H271.871V304.415Z" />
<path d="M284.366 304.874V291.538H287.041V304.874C287.041 309.268 289.372 312.478 293.996 312.478C298.658 312.478 300.95 309.268 300.95 304.874V291.538H303.625V304.874C303.625 310.873 300.148 315 293.996 315C287.92 315 284.366 310.873 284.366 304.874Z" />
<path d="M316.236 291.538H333.049V294.022H318.911V301.932H331.368V304.416H318.911V314.466H316.236V291.538Z" />
<path d="M343.864 291.538H360.677V294.022H346.539V301.932H358.996V304.416H346.539V314.466H343.864V291.538Z" />
<path d="M386.625 304.415H374.168V311.981H388.306V314.465H371.493V291.538H388.306V294.022H374.168V301.932H386.625V304.415Z" />
<path d="M399.465 291.538H408.826C414.558 291.538 417.998 294.213 417.998 299.18C417.998 302.963 415.858 305.409 412.61 306.364V306.479L418.647 313.816V314.465H415.743L409.439 306.861H402.14V314.465H399.465V291.538H399.465ZM408.789 294.022H402.14V304.378H409.132C412.686 304.378 415.246 302.772 415.246 299.257C415.246 295.703 412.686 294.022 408.789 294.022Z" />
<path d="M426.712 291.538H445.474V294.022H437.411V314.465H434.736V294.022H426.712V291.538Z" />
<path d="M24.0227 264.214H18.6196V253.319H5.40311V264.214H0V237.423H5.40311V248.943H18.6196V237.423H24.0227V264.214Z" />
<path d="M58.8056 253.095H46.1242V259.481H61.529V264.214H40.7217V237.423H61.5296V242.156H46.1242V248.675H58.8056V253.095Z" />
<path d="M76.5762 237.423H88.6773C95.4641 237.423 99.6613 240.772 99.6613 246.621C99.6613 250.595 97.6966 253.319 94.6154 254.792V255.194L101.001 263.678V264.214H94.8838L88.9451 256.042H81.9793V264.214H76.5767V237.423H76.5762ZM88.4983 242.156H81.9787V251.488H88.632C92.0251 251.488 94.0792 249.97 94.0792 246.844C94.0792 243.764 91.9809 242.156 88.4983 242.156Z" />
<path d="M113.458 262.786L127.121 242.156H113.949V237.423H135.739V238.896L122.567 259.481H135.605V264.214H113.458V262.786Z" />
<path d="M155.921 250.059L168.156 237.423H174.764V238.003L164.316 248.854L174.764 263.633V264.214H168.245C166.593 261.803 163.021 256.533 160.52 252.783L155.921 257.561V264.214H150.518V237.423H155.921V250.059H155.921Z" />
<path d="M188.649 237.423H200.751C207.537 237.423 211.734 240.772 211.734 246.621C211.734 250.595 209.77 253.319 206.689 254.792V255.194L213.074 263.678V264.214H206.957L201.019 256.042H194.053V264.214H188.65V237.423H188.649ZM200.572 242.156H194.053V251.488H200.706C204.099 251.488 206.154 249.97 206.154 246.844C206.154 243.764 204.055 242.156 200.572 242.156Z" />
<path d="M237.588 237.423H238.525L252.323 264.214H246.206L244.464 260.553H231.649L229.952 264.214H223.835L237.588 237.423ZM238.213 247.201H237.855L233.792 255.954L233.48 256.534H242.589L242.276 255.954L238.213 247.201Z" />
<path d="M265.36 237.423H286.168V242.156H270.763V248.675H283.98V253.095H270.763V264.214H265.36V237.423Z" />
<path d="M298.045 237.423H320.906V242.156H312.2V264.214H306.797V242.156H298.045V237.423Z" />
<path d="M366.138 237.423H372.39L362.254 253.988V264.214H356.851V253.944L346.804 237.423H353.055L358.592 246.755L359.351 248.451H359.842L360.646 246.755L366.138 237.423Z" />
<path d="M382.568 250.818C382.568 243.094 387.971 236.843 396.723 236.843C405.519 236.843 410.922 243.094 410.922 250.818C410.922 258.543 405.519 264.795 396.723 264.795C387.971 264.795 382.568 258.543 382.568 250.818ZM405.386 250.818C405.386 245.729 401.769 242.022 396.724 242.022C391.722 242.022 388.15 245.729 388.15 250.818C388.15 255.909 391.722 259.615 396.724 259.615C401.769 259.615 405.386 255.909 405.386 250.818Z" />
<path d="M437.758 248.675H451.154V251.309C451.154 259.257 446.778 264.795 438.428 264.795C429.632 264.795 424.273 258.543 424.273 250.818C424.273 243.094 429.677 236.843 438.518 236.843C445.528 236.843 448.519 240.236 448.519 240.236L445.349 244.344C445.349 244.344 442.67 242.022 438.428 242.022C433.337 242.022 429.855 245.729 429.855 250.818C429.855 255.909 433.293 259.659 438.383 259.659C442.715 259.659 445.304 256.936 445.439 253.453V253.096H437.758V248.675H437.758Z" />
<path d="M475.265 237.423H476.203L490 264.214H483.883L482.142 260.553H469.327L467.63 264.214H461.513L475.265 237.423ZM475.89 247.201H475.532L471.469 255.954L471.157 256.534H480.265L479.953 255.954L475.89 247.201Z" />
<path d="M206.256 17.9909L206.239 17.7656C206.071 16.0962 205.617 14.5542 205.194 13.2439C204.302 10.8499 202.949 7.82767 200.226 5.15686C200.094 5.01013 199.898 4.93933 199.699 4.95478C199.627 4.95478 199.562 4.98052 199.494 4.98438C199.232 5.07062 199.057 5.30617 199.051 5.52755C198.923 8.90114 199.827 11.9079 200.686 14.459C201.214 15.8774 201.743 17.2469 202.408 18.6023C202.631 19.1339 202.918 19.6719 203.19 20.2048C203.614 20.9886 204.005 21.757 204.26 22.5692C204.333 22.7983 204.553 22.9708 204.824 22.9953C204.859 22.9953 204.898 23.0004 204.937 22.9953C205.163 22.9953 205.384 22.8756 205.497 22.6889C206.499 21.1547 206.369 19.4698 206.256 17.9909Z" />
<path d="M309.636 6.73103C309.55 6.70014 309.455 6.66925 309.358 6.66925C309.206 6.66925 309.052 6.73103 308.927 6.85717C306.152 9.38639 304.248 12.3211 302.597 15.127C301.81 16.5493 300.996 18.0694 300.321 19.6268C299.966 20.3927 299.663 21.1791 299.341 21.9681C299.056 22.7262 298.764 23.496 298.395 24.2682C298.296 24.4819 298.349 24.7406 298.547 24.8976C298.666 25.0135 298.814 25.0675 298.973 25.0675C299.065 25.0675 299.16 25.0598 299.247 25.0135C301.069 24.1923 302.29 22.7507 303.395 21.4726L303.517 21.34C304.718 19.8997 305.692 18.35 306.472 17.0423C307.851 14.5517 309.492 11.1858 309.999 7.33212C310.014 7.09014 309.884 6.85717 309.636 6.73103Z" />
<path d="M342.533 20.1455C342.403 20.0516 342.248 19.9962 342.091 19.9962C341.973 19.9962 341.841 20.0194 341.734 20.0889C337.973 22.3929 335.009 25.3829 332.355 28.2635C331.138 29.6587 329.745 31.2934 328.479 33.0027C327.895 33.7377 327.347 34.5447 326.807 35.3427C326.204 36.1961 325.601 37.0881 324.924 37.9183C324.744 38.1358 324.725 38.4434 324.87 38.6944C324.996 38.9055 325.21 39.0252 325.44 39.0252C325.483 39.0252 325.543 39.0149 325.593 38.9995C327.793 38.4962 329.554 37.1267 331.096 35.9297L331.316 35.7482C333.031 34.3799 334.5 32.8753 335.848 31.4285C338.117 28.844 340.927 25.3365 342.724 20.9268C342.831 20.6514 342.75 20.3476 342.533 20.1455Z" />
<path d="M366.473 54.969C366.393 54.6794 366.127 54.4927 365.838 54.4927H365.648C360.824 54.4927 356.288 55.5649 352.478 56.5985C347.596 58.0491 343.634 59.685 340.012 61.7586C339.757 61.9156 339.632 62.2052 339.688 62.4961C339.755 62.7703 339.989 62.9801 340.286 63.0213C340.877 63.0663 341.458 63.1062 342.041 63.1062C343.813 63.1062 345.583 62.863 347.216 62.612C349.484 62.2657 351.715 61.6955 353.774 61.1331C357.586 59.9965 362.05 58.4545 366.204 55.7297C366.447 55.5649 366.562 55.2612 366.473 54.969Z" />
<path d="M369.646 95.6141C365.336 93.2496 360.874 92.1388 357.064 91.364C354.997 91.0126 352.783 90.6663 350.51 90.5402C349.68 90.5093 348.872 90.463 348.034 90.463C346.348 90.463 344.972 90.6097 343.678 90.9392C343.389 91.0254 343.185 91.2545 343.17 91.5442C343.149 91.8338 343.31 92.1002 343.57 92.216C347.649 93.8932 351.774 95.1456 356.176 95.9976C359.037 96.4996 362.447 97.0325 366.028 97.0325C367.161 97.0325 368.305 96.9669 369.393 96.8652C369.689 96.8356 369.919 96.6232 369.986 96.3271C370.046 96.0298 369.91 95.7479 369.646 95.6141Z" />
<path d="M360.718 131.701C357.309 128.211 353.271 125.934 350.151 124.334C348.291 123.472 346.307 122.58 344.173 121.945L343.781 121.82C342.222 121.366 340.601 120.897 338.86 120.897C338.374 120.897 337.917 120.935 337.466 121.007C337.181 121.062 336.957 121.273 336.914 121.555C336.868 121.854 337.004 122.128 337.25 122.268C338.266 122.8 339.232 123.42 340.164 124.035C340.955 124.553 341.744 125.079 342.58 125.548C344.255 126.575 345.974 127.491 348.049 128.572C351.706 130.31 355.671 132.026 360.106 132.832C360.152 132.839 360.192 132.839 360.232 132.839C360.479 132.839 360.717 132.714 360.827 132.494C360.959 132.227 360.925 131.915 360.718 131.701Z" />
<path d="M328.459 146.078C327.414 144.904 326.133 143.588 324.615 142.475L324.352 142.305C322.975 141.318 321.408 140.22 319.423 140.22C319.42 140.22 319.353 140.22 319.353 140.22C319.066 140.22 318.829 140.392 318.735 140.651C318.633 140.894 318.696 141.184 318.887 141.372C319.611 142.086 320.164 142.876 320.723 143.736C321.088 144.254 321.437 144.78 321.832 145.27C322.752 146.595 323.761 147.816 324.909 149.155C326.937 151.433 329.38 154.01 332.715 155.959C332.829 155.999 332.935 156.037 333.052 156.037C333.2 156.037 333.345 155.992 333.463 155.898C333.681 155.726 333.772 155.452 333.698 155.178C332.546 151.252 330.295 148.239 328.459 146.078Z" />
<path d="M300.784 161.855C300.063 160.689 299.199 159.349 298.037 158.152C296.987 157.086 295.656 155.754 293.776 155.443C293.734 155.443 293.702 155.425 293.666 155.425C293.439 155.425 293.24 155.537 293.117 155.701C292.969 155.913 292.954 156.202 293.075 156.42C293.478 157.157 293.771 157.909 294.058 158.645C294.282 159.241 294.514 159.797 294.779 160.375C295.312 161.613 295.934 162.804 296.689 164.181C298.072 166.476 299.744 169.059 302.425 171.165C302.547 171.258 302.699 171.314 302.844 171.314C302.945 171.314 303.046 171.291 303.14 171.235C303.383 171.125 303.517 170.89 303.517 170.617C303.415 167.766 302.586 165.08 300.784 161.855Z" />
<path d="M176.002 24.442L175.767 23.8486C174.945 21.8523 173.915 20.0516 172.925 18.3899C170.244 14.2093 167.762 11.3042 164.87 9.01954C164.764 8.92558 164.615 8.8728 164.474 8.8728C164.352 8.8728 164.231 8.90241 164.126 8.97964C163.899 9.12122 163.788 9.4031 163.867 9.65409C165.154 13.8502 167.269 17.4979 169.156 20.5922C170.205 22.2204 171.32 23.9207 172.521 25.5335C172.918 26.1268 173.371 26.7318 173.829 27.3174C174.6 28.3047 175.325 29.243 175.846 30.3229C175.951 30.5443 176.178 30.6691 176.421 30.6691C176.444 30.6691 176.473 30.6614 176.498 30.6614C176.773 30.6382 176.991 30.4246 177.035 30.1659C177.416 28.0846 176.661 26.1667 176.002 24.442Z" />
<path d="M155.066 47.9167L154.747 47.4701C153.948 46.4906 153.12 45.5832 152.268 44.7916C150.491 43.0874 148.521 41.6278 146.822 40.4539C142.141 37.3545 138.266 35.492 134.246 34.4263C134.187 34.3967 134.124 34.3967 134.068 34.3967C133.846 34.3967 133.623 34.5189 133.498 34.7159C133.34 34.9591 133.372 35.2861 133.569 35.5126C136.881 39.1706 140.775 41.9959 144.164 44.3372C146.091 45.5909 147.972 46.8265 149.881 47.9399L152.753 49.6621C152.947 49.7792 153.164 49.9131 153.38 50.0456C154.09 50.4614 154.75 50.8514 155.175 51.4782C155.305 51.6584 155.51 51.7524 155.731 51.7524C155.789 51.7524 155.861 51.7369 155.919 51.7073C156.206 51.643 156.396 51.392 156.396 51.0882C156.421 49.7895 155.701 48.7855 155.066 47.9167Z" />
<path d="M148.106 74.7406C147.435 73.6453 146.305 73.1832 145.299 72.7932L144.774 72.5564C143.552 72.1574 142.382 71.851 141.242 71.6399C138.803 71.1482 136.371 70.9912 134.313 70.8895C133.856 70.8895 133.416 70.8895 132.977 70.8895C128.08 70.8895 124.106 71.4044 120.47 72.5486C120.184 72.649 119.991 72.9232 120 73.2231C120 73.5179 120.207 73.7598 120.488 73.8615C125.236 75.1628 129.845 75.437 134.151 75.603C135.332 75.6185 136.496 75.6403 137.66 75.6403C138.745 75.6403 139.832 75.6172 140.917 75.5927L144.261 75.5013C144.273 75.5013 144.288 75.5013 144.304 75.5013C144.586 75.5013 144.806 75.4756 145.025 75.4692C145.247 75.4692 145.466 75.4614 145.685 75.4614C146.174 75.4614 146.747 75.5013 147.271 75.7034C147.349 75.7498 147.435 75.7652 147.529 75.7652C147.717 75.7652 147.905 75.688 148.039 75.5232C148.231 75.3031 148.254 74.9916 148.106 74.7406Z" />
<path d="M151.503 100.94C150.669 100.397 149.756 100.329 149.06 100.329C148.735 100.329 148.414 100.337 148.096 100.344L147.555 100.392C146.307 100.517 145.117 100.736 143.97 101.026C141.578 101.59 139.292 102.467 137.37 103.264C132.233 105.526 128.585 107.789 125.51 110.599C125.287 110.797 125.228 111.116 125.358 111.376C125.468 111.618 125.711 111.768 125.964 111.768C125.999 111.768 126.035 111.768 126.074 111.768C130.932 110.945 135.399 109.184 139.204 107.595C141.405 106.623 143.373 105.74 145.335 104.721L148.324 103.249C148.539 103.155 148.765 103.031 149.001 102.913C149.728 102.554 150.418 102.198 151.153 102.168C151.444 102.16 151.689 101.957 151.772 101.683C151.85 101.402 151.742 101.102 151.503 100.94Z" />
<path d="M164.501 125.501C164.252 125.437 163.985 125.415 163.715 125.415C162.877 125.415 162.09 125.689 161.406 125.94L160.935 126.11C159.87 126.574 158.898 127.059 157.979 127.592C156.037 128.702 154.287 130.057 152.839 131.232C150.22 133.479 146.92 136.578 144.529 140.769C144.387 141.044 144.418 141.347 144.619 141.566C144.748 141.7 144.926 141.786 145.112 141.786C145.21 141.786 145.3 141.771 145.386 141.731C149.559 139.852 152.968 137.19 155.843 134.849C157.408 133.516 158.92 132.188 160.379 130.739C160.919 130.252 161.452 129.722 161.98 129.157C162.854 128.233 163.692 127.363 164.708 126.724C164.941 126.574 165.057 126.298 165.007 126.042C164.971 125.768 164.762 125.546 164.501 125.501Z" />
<path d="M188.124 143.203C188.026 142.955 187.806 142.804 187.548 142.782C187.533 142.782 187.391 142.782 187.377 142.782C186.362 142.782 185.533 143.322 184.867 143.77L184.545 143.987C183.711 144.606 182.996 145.263 182.377 145.905C181.026 147.253 179.926 148.82 179.026 150.156C177.464 152.678 175.596 156.078 174.95 160.259C174.906 160.525 175.036 160.791 175.278 160.923C175.38 160.988 175.501 161.009 175.615 161.009C175.763 161.009 175.919 160.98 176.041 160.87C179.125 158.364 181.232 155.359 182.97 152.72C183.801 151.388 184.746 149.838 185.574 148.224C185.884 147.708 186.165 147.123 186.439 146.539C186.9 145.57 187.338 144.663 188.012 143.902C188.182 143.713 188.225 143.431 188.124 143.203Z" />
<path d="M220.189 158.753C220.056 158.599 219.861 158.511 219.665 158.511C219.586 158.511 219.512 158.527 219.435 158.548C217.418 159.254 216.15 160.898 215.035 162.339L214.629 162.855C213.348 164.57 212.357 166.361 211.48 168.037C210.04 171.021 208.353 175.014 207.931 179.641C207.9 179.923 208.06 180.189 208.322 180.313C208.408 180.362 208.51 180.369 208.601 180.369C208.781 180.369 208.961 180.297 209.089 180.158C211.806 177.245 213.693 174.057 215.689 170.158C216.456 168.547 217.334 166.668 218.057 164.78C218.36 164.137 218.615 163.432 218.864 162.705C219.267 161.576 219.639 160.49 220.243 159.525C220.392 159.301 220.365 158.981 220.189 158.753Z" />
<path d="M325.998 84.8948C325.526 75.9853 322.857 67.5365 318.293 60.5152C315.827 56.6641 312.961 53.2879 309.782 50.4846C306.311 47.4701 302.336 45.152 297.959 43.6177C294.15 42.2405 290.054 41.5454 285.795 41.5454C280.859 41.5454 275.837 42.5146 271.275 44.3385C263.575 47.4611 256.512 52.7255 250.848 59.5666C248.534 62.4472 246.585 65.4617 245.037 68.5315C244.38 67.2958 243.723 66.1773 243.029 65.1347C241.274 62.4099 239.192 59.9205 236.856 57.78C234.218 55.3474 231.434 53.6393 228.579 52.692C228.411 52.6302 228.231 52.6148 228.066 52.6148C227.448 52.6148 226.86 52.9494 226.587 53.5467C226.242 54.2893 226.521 55.1749 227.225 55.6215C229.574 57.0399 231.383 59.183 232.98 61.3055C234.413 63.2465 235.705 65.5324 237.022 68.4439C239.045 73.1278 240.455 78.3575 241.314 84.4263C241.625 86.5423 243.327 88.186 245.46 88.3958C245.62 88.428 245.786 88.4447 245.943 88.4447C248.337 88.4447 250.331 86.6337 250.582 84.2448L250.628 83.7763C251.173 78.4591 254.387 72.3684 259.433 67.0435C264.233 61.8757 269.848 58.0864 275.692 56.0823C278.883 54.8917 282.097 54.3138 285.263 54.3138C288.174 54.3138 290.972 54.8068 293.58 55.7863C296.798 57.0399 299.438 58.5407 301.382 60.2333C303.661 62.1576 305.828 64.6495 307.656 67.4194C311.41 73.1896 313.721 79.5326 314.304 85.7495C314.946 92.4516 313.995 99.3004 311.58 105.526C307.4 116.739 299.059 127.651 285.315 139.891C284.704 140.455 284.598 141.369 285.073 142.045C285.394 142.492 285.892 142.732 286.4 142.732C286.674 142.732 286.943 142.679 287.194 142.522C302.9 133.767 314.192 122.683 320.776 109.545C324.665 101.377 326.47 92.8583 325.998 84.8948Z" />
<path d="M236.479 38.1693C238.913 40.6573 242.339 42.2405 245.87 42.5442C246.246 42.5738 246.611 42.5841 246.978 42.5841C250.69 42.5841 253.856 41.1284 255.857 39.8824C260.408 37.0173 263.999 32.874 267.167 26.8C270.142 20.8393 271.433 15.5775 271.143 10.707C271.101 9.972 270.573 9.3619 269.848 9.22031C269.737 9.20487 269.636 9.19714 269.528 9.19714C268.92 9.19714 268.353 9.50992 268.071 10.0827C265.791 14.6456 262.905 18.6936 260.138 22.3903C256.744 26.7331 253.664 29.7565 250.743 31.5984C249.048 32.6449 247.487 33.1636 245.995 33.1636C244.57 33.1636 243.161 32.7002 241.689 31.731C238.495 29.6484 235.655 26.1706 232.65 22.5074L231.905 21.6064C231.593 21.2383 231.13 21.0208 230.657 21.0208C230.422 21.0208 230.195 21.0658 229.977 21.1675C229.303 21.4713 228.931 22.2023 229.058 22.9283C230.211 29.3588 232.632 34.3477 236.479 38.1693Z" />
<path d="M243.456 15.7757C244.998 17.1362 246.689 18.0398 248.968 18.6885C249.119 18.7451 249.265 18.7503 249.418 18.7503C249.896 18.7503 250.35 18.5392 250.664 18.1479C252.53 15.9006 253.103 13.9351 253.391 12.4395C253.689 10.6877 253.571 9.04014 253.042 7.50587C252.53 5.97418 251.618 4.58536 250.325 3.41922C248.702 1.98664 246.974 1.09208 244.693 0.537327C244.568 0.507723 244.431 0.5 244.307 0.5C243.813 0.5 243.335 0.718813 243.019 1.11782C241.59 2.98031 240.777 4.73596 240.396 6.81597C240.1 8.57162 240.227 10.1998 240.752 11.72C241.291 13.2439 242.2 14.6173 243.456 15.7757Z" />
<path d="M260.498 148.842C258.864 146.579 256.912 144.756 255.042 143.142C250.844 139.577 246.362 136.823 242.928 134.842C237.542 131.75 232.011 129.073 226.671 126.471C223.821 125.11 220.978 123.741 218.194 122.314C209.229 117.914 202.01 113.998 195.795 109.057C192.156 106.175 189.361 103.428 187.264 100.633C185.087 97.7198 183.067 94.0695 181.434 90.118C179.799 86.1652 178.827 82.3424 178.553 78.7771C178.267 74.9826 178.717 71.192 179.889 67.5301C182.249 60.3813 187.977 54.0293 195.212 50.5605C199.338 48.4947 203.933 47.4057 208.517 47.4057C212.331 47.4057 216.015 48.133 219.472 49.5746C219.679 49.6608 219.89 49.702 220.102 49.702C220.662 49.702 221.213 49.4175 221.503 48.8949C221.913 48.1742 221.734 47.2822 221.073 46.7789C216.289 43.1608 209.955 41.1824 203.241 41.1824C199.475 41.1824 195.743 41.7925 192.166 42.9741C187.223 44.6487 182.607 47.3272 178.797 50.7162C174.874 54.2481 171.691 58.7209 169.589 63.6211C165.636 72.6336 165.679 83.9784 169.711 94.7208C171.758 99.9118 174.131 104.336 176.975 108.291C179.958 112.313 183.594 116.01 187.81 119.266C198.911 127.7 211.095 132.96 222.867 138.034C228.016 140.251 232.877 142.355 237.66 144.712C242.303 146.991 245.809 149.012 248.697 151.124C250.349 152.337 251.864 153.646 253.207 155.001C254.37 156.2 255.462 157.797 256.205 159.392C257.236 161.64 258.702 165.899 256.809 169.148C255.439 171.646 251.762 173.236 246.944 173.464C246.12 173.509 245.46 174.159 245.398 174.976C245.334 175.788 245.895 176.508 246.697 176.68C248.448 177.027 250.029 177.213 251.51 177.213C252.467 177.213 253.404 177.127 254.313 176.979C257.334 176.508 260.043 175.06 261.946 172.89C264.283 170.214 265.027 166.925 265.24 164.623C265.479 161.914 265.149 159.094 264.246 156.291C263.354 153.533 262.168 151.142 260.498 148.842Z" />
</svg>
