<svg width="119" height="144" viewBox="0 0 119 144" fill="none" xmlns="http://www.w3.org/2000/svg">
<path d="M64.7133 126.242L117.932 66.7631C118.556 71.462 118.895 76.529 118.895 82.0522V143.694L73.2952 129.275C70.2407 128.317 67.3912 127.3 64.7133 126.242ZM43.5789 73.6838V70.6126C43.5914 39.8502 43.5914 34.3062 32.2397 22.9544L25.9801 16.6948C26.9801 22.377 27.3023 29.0675 26.5199 36.9966C25.8378 43.9299 24.0261 50.1978 22.2729 56.2607C20.3189 63.0182 18.4736 69.4033 18.4736 75.9642C18.4736 96.9354 36.6917 101.802 48.533 102.756C45.2233 96.1363 43.5789 87.023 43.5789 73.6838Z" fill="#F4ABEF"/>
<path d="M117.849 67.939C117.267 61.6836 115.945 52.3988 111.217 44.0095C106.957 36.2436 99.8482 29.9923 91.7308 26.8667C84.6888 24.0382 76.6509 22.5989 67.1402 22.4691L60.3493 22.4817C55.2194 22.4817 49.7214 22.4357 44.2568 22.1051C40.9973 21.921 37.2106 21.603 33.8297 20.6657C30.8129 19.854 28.34 18.4356 25.8212 16.0715C25.4195 15.6907 24.7709 15.7033 24.3692 16.1008L19.4695 21.0005C19.0762 21.3896 19.0595 22.0256 19.4319 22.4357C20.1934 23.2851 21.0804 24.1177 22.0888 24.9378L23.2688 26.0215C26.0094 28.5362 28.5995 30.9129 30.6665 33.3732C33.3151 36.4528 34.8088 40.4445 35.5076 46.3191C36.2649 52.9846 36.4993 59.9764 36.7294 66.7381C36.8591 70.5876 36.9888 74.4496 37.2106 78.32C37.629 84.6591 38.3905 89.8349 39.6039 94.5966C41.0601 100.668 43.3237 105.785 46.3322 109.794C47.3991 111.225 48.6377 112.601 50.0268 113.915C37.6625 111.852 28.453 107.961 21.9382 102.078C17.959 98.5255 14.9004 93.9982 13.097 88.9897C11.4233 84.1653 10.7831 78.8095 11.1848 73.0897C11.6074 67.8176 12.8417 62.5413 14.5573 56.2483L14.6368 55.9721C16.2812 50.1602 17.9758 44.1517 18.595 37.6327C19.2687 30.984 18.913 24.4148 17.5364 18.0925C17.2561 16.9585 16.9172 15.7953 16.5113 14.5986C16.6912 14.7242 16.9004 14.7869 17.1138 14.7869C17.1306 14.7869 17.1473 14.7869 17.1682 14.7869C17.7456 14.7869 18.2143 14.3183 18.2143 13.7409C18.2143 13.3936 18.0427 13.084 17.7833 12.8957C16.8335 11.6739 15.8586 10.4856 14.8794 9.29724C14.2978 8.59848 13.7204 7.89553 13.2351 7.30974C11.5697 4.48959 9.78308 2.28869 7.77884 0.57735C7.36879 0.225876 6.75371 0.250981 6.36039 0.635928L4.00468 2.99164C3.6281 3.36822 3.59463 3.97493 3.92937 4.38916C7.03405 8.2219 8.96715 13.2973 9.67429 19.49C10.281 24.3855 10.1136 29.779 9.15544 36.4528C8.46505 40.7751 7.17631 45.0848 5.80808 49.6498C5.43568 50.8967 5.05492 52.1561 4.68671 53.4239C3.01721 59.0433 1.20544 65.6084 0.887444 72.4202C0.460655 79.8012 1.56947 86.747 4.07163 92.4877C6.68258 98.8477 11.1973 104.534 16.7749 108.505C26.3777 115.409 39.3487 118.267 53.2361 116.631C55.1316 118.07 57.0898 119.317 59.0605 120.342C64.0648 122.966 69.3118 124.748 74.2325 126.284L94.2623 132.777C98.5511 134.154 102.819 135.61 107.083 137.066C109.455 137.874 111.832 138.69 114.208 139.485L114.882 139.711C114.987 139.748 115.104 139.765 115.213 139.765C115.426 139.765 115.635 139.698 115.811 139.577C116.083 139.389 116.246 139.083 116.259 138.757L117.828 91.5965C117.874 90.1488 117.924 88.701 117.983 87.2407C118.225 80.9728 118.468 74.4873 117.849 67.939ZM48.5582 108.204C42.5329 99.3164 41.7295 88.0399 41.7379 78.1861C41.7797 74.3952 41.9178 70.6001 42.0559 66.7925C42.3069 59.9471 42.5622 52.8674 42.2526 45.7124C42.1145 43.3442 41.8383 40.2186 40.9722 37.0218C40.4868 35.2101 39.7295 33.3648 38.7085 31.5238C40.1521 31.7455 41.717 31.938 43.4994 32.1179C50.0896 32.6786 56.6421 32.7539 62.9769 32.8292L67.0105 32.8795C76.0108 33.097 82.467 34.1598 87.9483 36.3231C94.5175 38.8754 99.7729 43.1726 103.145 48.7544C106.493 54.2106 108.811 60.989 110.033 68.9181C110.426 71.257 110.669 73.6169 110.865 75.9936L72.3998 123.459C68.4541 122.112 64.1611 120.472 60.1484 118.296C55.2194 115.664 51.2151 112.179 48.5582 108.204ZM75.0777 124.355C74.9773 124.3 74.8643 124.267 74.7471 124.25C74.0233 124.012 73.2576 123.748 72.5002 123.489L111.388 85.9436C111.405 86.3955 111.422 86.8432 111.438 87.3035C111.485 88.7345 111.531 90.1655 111.585 91.5965L112.116 107.58L95.618 130.673C95.4046 130.606 95.1912 130.551 94.9862 130.485L75.0777 124.355ZM107.974 134.363C103.911 133.179 99.8566 131.987 95.8063 130.736L112.418 116.539L113.058 135.849C111.363 135.351 109.669 134.857 107.974 134.363Z" fill="#231F20"/>
</svg>
