<svg width="113" height="126" viewBox="0 0 113 126" fill="none" xmlns="http://www.w3.org/2000/svg">
<path d="M112.736 122.815L112.472 74.3451C112.443 58.1898 112.267 42.0304 111.932 25.8752L111.899 24.0676L110.163 24.1011L103.317 24.2266L103.485 14.197C103.489 13.9167 103.384 13.6489 103.187 13.4481C102.991 13.2472 102.727 13.1342 102.447 13.1342L81.2078 13.0171L79.9065 3.81601L79.6136 1.67788C79.5718 1.40172 79.4253 1.15067 79.1994 0.983299C78.9776 0.811746 78.6931 0.740614 78.4127 0.78664L1.6785 12.5108C1.40235 12.5526 1.15548 12.7033 0.988109 12.9292C0.824925 13.1594 0.757977 13.4439 0.804003 13.7159L9.06782 64.0896C11.6495 80.1904 14.3818 96.2787 17.1768 111.903L17.4948 113.693C17.5408 113.965 17.6957 114.208 17.9258 114.367C18.1015 114.488 18.3107 114.555 18.5241 114.555C18.5869 114.555 18.6455 114.551 18.7082 114.539L24.5871 113.493L24.6163 115.112C24.6205 115.388 24.7377 115.656 24.9385 115.848C25.1352 116.032 25.3946 116.137 25.6624 116.137C25.6708 116.137 25.6749 116.137 25.6833 116.137L35.2693 115.957L35.1564 122.815L35.1229 124.982L37.3363 124.995L110.163 125.388L112.748 125.405L112.736 122.815ZM15.704 63.0561L8.91719 18.6909L74.0904 7.99604L81.9149 52.583L86.3251 76.4246L90.6641 99.1533L55.6172 103.626L22.3527 108.258C20.2815 93.2912 18.043 78.0858 15.704 63.0561ZM56.295 107.856L92.0072 101.095C92.5596 101.065 92.9989 100.609 92.9989 100.049C92.9989 99.8897 92.9612 99.7391 92.8985 99.601L89.8942 75.8514L86.6891 51.8131L82.1451 19.6658L97.0492 19.5821L97.8024 64.8344L98.4133 89.0735L99.1497 112.195L63.8391 111.137L40.2988 110.698L56.295 107.856ZM107.853 74.3451L107.606 120.254L39.4828 120.622L39.4033 115.878L63.8433 115.421L100.246 114.325C100.258 114.325 100.267 114.325 100.275 114.325C100.853 114.325 101.321 113.857 101.321 113.279C101.321 113.179 101.305 113.078 101.275 112.986L102.033 89.0693L102.644 64.826L103.263 27.5154L108.368 27.6116C108.062 43.1853 107.886 58.7673 107.853 74.3451Z" fill="#231F20"/>
<path d="M51.341 78.2369C64.3581 79.3541 74.8521 74.8017 78.4045 63.9813C73.0236 62.9771 65.6887 64.2951 65.6887 64.2951C65.6887 64.2951 67.5255 58.408 66.0987 50.4538C57.7387 54.9267 55.2993 60.3494 55.2993 60.3494C55.2993 60.3494 53.4791 53.525 46.2781 50.0103C40.7466 55.8138 41.4202 62.8558 41.4202 62.8558C41.4202 62.8558 37.2402 58.6172 27.8467 57.3452C29.2735 65.2994 33.0476 70.1698 33.0476 70.1698C33.0476 70.1698 25.7127 71.5004 21.0222 74.3121C28.1061 83.2287 39.529 83.827 51.341 78.2369Z" fill="#F4ABEF"/>
</svg>
