<svg width="205" height="209" viewBox="0 0 205 209" fill="none" xmlns="http://www.w3.org/2000/svg">
<path d="M104.786 192.639C140.117 202.163 171.291 194.825 186.431 166.776C172.113 161.347 151.223 161.335 151.223 161.335C151.223 161.335 159.216 146.022 159.216 123.403C133.959 131.569 124.539 145.306 124.539 145.306C124.539 145.306 122.902 125.602 104.786 112.353C86.6692 125.602 85.0324 145.318 85.0324 145.318C85.0324 145.318 75.6128 131.575 50.3558 123.409C50.3558 146.028 58.3548 161.341 58.3548 161.341C58.3548 161.341 37.4649 161.353 23.1409 166.783C38.2802 194.831 69.4545 202.163 104.786 192.639Z" fill="#F4ABEF"/>
<path d="M167.833 155.521C156.344 149.493 145.053 145.033 134.114 140.746C132.057 131.79 129.277 120.221 125.75 108.695C125.534 107.96 124.793 107.528 124.039 107.62C123.28 107.738 122.724 108.392 122.73 109.164C122.859 122.049 123.774 134.607 124.657 145.194L124.793 146.88C124.836 147.405 125.145 147.868 125.608 148.115L145.368 158.659C150.686 161.408 156.189 164.255 161.02 167.214C166.363 170.395 169.562 173.761 170.81 177.535C171.564 179.71 171.879 181.964 171.749 184.281C171.669 186.368 171.088 188.314 170.019 190.043C167.864 193.404 163.818 195.411 159.117 195.411C153.101 195.38 146.263 194.386 140.958 193.521C136.226 192.823 131.488 192.051 126.726 191.273C123.422 190.735 120.055 190.192 116.677 189.667C125.831 186.35 134.311 182.959 142.205 179.463C145.998 180.599 149.889 181.649 153.879 182.471C153.991 182.489 154.089 182.502 154.194 182.502C154.207 182.502 154.225 182.502 154.238 182.502C155.115 182.471 155.819 181.822 155.819 180.957C155.819 180.334 155.448 179.796 154.923 179.555C149.537 175.145 143.953 171.383 137.221 167.097C131.896 163.786 125.929 160.376 118.455 156.374L116.88 155.528C116.541 155.348 116.151 155.299 115.769 155.398L113.662 155.929C108.468 157.245 102.89 158.696 97.3123 160.395C92.1608 161.89 87.1267 163.601 81.1414 165.707C70.925 169.438 60.0353 173.718 49.6953 179.617C49.0776 179.969 48.7812 180.698 48.9788 181.377C49.1703 182.057 49.8374 182.514 50.523 182.502C62.4689 182.063 73.9516 179.963 84.6004 177.752C89.9248 176.584 95.5889 175.306 101.105 173.761C105.219 172.668 109.573 171.39 115.157 169.635C121.803 172.409 127.406 174.583 132.767 176.455C133.409 176.671 134.12 176.875 134.775 177.097C127.955 178.518 121.155 179.975 114.521 181.414C108.35 182.761 102.186 184.101 96.0028 185.405C91.4134 186.381 86.8117 187.443 82.21 188.505C70.9064 191.112 59.2138 193.805 48.2685 195.127C41.7952 195.967 36.5326 193.626 34.346 189.037C33.8518 188.042 33.4133 186.547 33.2959 185.466C33.2342 184.954 33.1477 183.57 33.1724 183.058C33.1724 182.279 33.2527 181.526 33.333 180.828C33.7345 177.98 34.871 175.454 36.7982 173.113C40.0039 169.209 45.5075 166.25 51.3383 163.106C52.6849 162.384 54.0376 161.655 55.3347 160.926L78.9363 148.511C79.3995 148.27 79.7084 147.807 79.7516 147.288L79.8813 145.805C81.1908 131.197 81.932 119.906 82.2841 109.195C82.3088 108.417 81.7467 107.738 80.9746 107.62C80.1655 107.491 79.4551 107.985 79.2513 108.738C76.6262 118.331 74.0875 128.838 71.2894 141.766C64.6061 144.317 57.7128 147.115 50.2574 150.314C45.5816 152.285 41.9929 153.977 38.608 155.775C35.1304 157.628 30.6523 160.265 26.8968 164.292C23.203 168.122 20.6335 173.416 19.8429 178.82C19.6514 180.136 19.5155 181.458 19.4784 182.755C19.4475 184.404 19.4784 184.886 19.5464 185.917L19.5834 186.535C19.849 189.5 20.5038 192.002 21.77 194.88C24.0616 200.155 28.651 204.621 34.0063 206.807C37.2985 208.265 41.0849 209 45.2789 209C46.7305 209 48.2129 208.907 49.6706 208.728C57.929 207.796 65.4956 205.739 72.8151 203.737L74.8905 203.169C81.129 201.477 87.3429 199.488 93.3529 197.573L98.8194 195.837C101.834 194.861 104.681 193.879 107.553 192.897C117.727 197.042 127.968 200.748 138.752 203.898L141.18 204.534C146.677 205.973 152.354 207.474 158.778 207.925C159.401 207.975 160.031 207.999 160.674 207.999C167.357 207.999 176.301 205.257 181.372 197.548C183.787 193.916 185.264 189.518 185.529 185.188C185.85 180.828 185.301 176.566 183.954 172.847C181.49 166.034 175.937 160.055 167.833 155.521Z" fill="#231F20"/>
<path d="M204.06 169.431L202.003 167.238C194.794 159.554 187.981 152.296 181.823 144.538C180.347 142.704 178.834 140.641 177.036 138.022C176.283 136.965 175.547 135.847 174.93 134.847L164.997 116.613C164.022 114.784 163.058 112.956 162.088 111.122C157.832 103.03 153.435 94.6666 147.727 86.5256C145.88 83.6843 142.786 80.7626 139.883 79.1134C137.177 77.4766 134.398 76.1239 131.365 74.9812C126.553 73.1652 121.605 71.763 116.281 70.7006C115.966 68.5573 115.602 66.4139 115.219 64.2706C115.515 64.0544 115.843 63.8938 116.12 63.6714C121.655 59.4156 125.157 52.93 125.738 45.8823C125.8 45.2028 125.824 44.511 125.818 43.8254C125.849 40.317 125.886 36.8024 126.01 33.2507C126.022 32.1636 126.096 31.0703 126.164 29.977C126.325 27.4939 126.498 24.9244 126.003 22.2993C124.83 14.3003 119.524 7.03021 112.192 3.33031C104.539 -0.653727 94.3041 -0.289296 86.7869 4.3186C82.7473 6.83255 79.4489 10.2174 77.2746 14.0903C75.0572 17.9137 73.7724 22.744 73.7477 27.3766C73.7662 31.2 73.8156 34.5478 73.9453 38.1242C73.97 39.2916 74.0442 40.459 74.1121 41.6264L74.2171 43.4486C74.3036 45.7649 74.6618 48.1306 75.2301 50.0948C77.2808 57.3711 82.6546 63.5294 89.3873 66.6795C89.165 68.0199 88.9117 69.3603 88.7141 70.7006C83.4082 71.7507 78.4606 73.1528 73.6241 74.975C70.5728 76.1362 67.7932 77.4889 65.0816 79.1258C63.5004 80.1326 62.2588 80.9603 60.6714 82.4736C59.4484 83.6101 58.4848 84.8949 57.6386 86.0314L57.305 86.4762C54.0066 91.1458 51.0603 95.9514 48.0398 101.597L46.3412 104.722C44.1732 108.7 42.0175 112.653 40.0224 116.613L32.1161 131.375C29.3612 136.434 26.0628 140.888 23.2029 144.563C16.952 152.413 10.034 159.776 2.70833 167.571L0.707048 169.702C0.194374 170.246 0.144959 171.074 0.589689 171.673C0.886175 172.074 1.35561 172.303 1.83122 172.303C2.05977 172.303 2.28831 172.253 2.5045 172.148C12.8815 167.108 22.61 160.375 31.4181 152.129C36.1557 147.713 40.1335 143.012 43.2158 138.195C46.4277 133.494 49.164 128.577 51.82 123.827L52.1783 123.185C54.9393 118.25 57.5212 113.135 60.0167 108.181C62.6418 102.974 65.1187 98.0515 67.7438 93.4251C68.3862 92.3627 68.9977 91.43 69.7019 90.5405C69.986 90.1452 70.8631 89.2557 71.7711 88.5083C73.5933 86.9765 75.786 85.63 78.09 84.2093C82.1914 81.7633 86.8548 79.3234 92.7722 76.5562L94.162 75.9077C94.7735 75.6235 95.1317 74.9688 95.0391 74.2955L94.897 73.2764C94.6438 71.4727 94.3967 69.8791 94.1558 68.3226C96.1509 68.8167 98.2016 69.1132 100.277 69.1132C104.094 69.1132 107.788 68.2114 111.136 66.661C110.741 69.0947 110.401 71.3924 110.129 73.2825L109.993 74.3017C109.9 74.9688 110.259 75.6235 110.876 75.9077L112.254 76.5501C118.06 79.2617 122.872 81.7695 127.121 84.3143C129.37 85.7041 131.495 87.0136 133.292 88.5207C135.164 90.0093 136.09 91.43 137.27 93.3818C139.944 98.0824 142.44 103.042 145.083 108.299C147.554 113.209 150.105 118.287 152.848 123.185L153.614 124.562C156.146 129.078 158.759 133.753 161.792 138.176L164.38 141.901C165.356 143.229 166.301 144.402 167.301 145.6C169.457 148.114 171.792 150.406 173.602 152.142C182.428 160.4 192.157 167.139 202.528 172.155C202.744 172.266 202.972 172.309 203.201 172.309C203.213 172.309 203.226 172.309 203.244 172.309C204.084 172.136 204.825 171.63 204.825 170.765C204.807 170.19 204.51 169.702 204.06 169.431ZM96.2559 60.2124C91.4195 57.612 88.0161 52.7138 87.3552 47.3832C87.1699 46.1664 87.1328 45.0422 87.244 43.4671L87.3552 41.6264C87.4231 40.459 87.4972 39.2978 87.5219 38.1551C87.6516 34.6776 87.6949 30.9282 87.7134 27.6484C87.7196 22.4784 89.9062 17.8396 93.8902 14.5721C96.7995 12.1322 100.759 10.7363 104.749 10.7363C106.213 10.7363 107.677 10.9216 109.104 11.2922C114.904 12.7252 119.783 17.4443 121.513 23.3122C122.211 25.6224 122.316 28.1487 122.421 30.8294C122.458 31.6695 122.495 32.5095 122.544 33.3001C122.674 36.8147 122.705 40.3293 122.73 43.8377C122.73 43.8377 122.73 43.8377 122.73 43.8439C122.73 44.4369 122.705 45.036 122.662 45.629C122.118 51.497 118.634 56.9511 113.539 59.8851C110.87 61.4663 107.769 62.3064 104.558 62.3064C101.586 62.294 98.7205 61.5775 96.2559 60.2124Z" fill="#231F20"/>
</svg>
