<svg width="156" height="156" viewBox="0 0 156 156" fill="none" xmlns="http://www.w3.org/2000/svg">
<path d="M77.9999 138.689C101.482 145.019 122.201 140.142 132.263 121.5C122.747 117.892 108.863 117.883 108.863 117.883C108.863 117.883 114.176 107.706 114.176 92.6729C97.3891 98.1001 91.1286 107.23 91.1286 107.23C91.1286 107.23 90.0407 94.1344 77.9999 85.3286C65.9592 94.1344 64.8713 107.238 64.8713 107.238C64.8713 107.238 58.6108 98.1042 41.8244 92.677C41.8244 107.711 47.1407 117.887 47.1407 117.887C47.1407 117.887 33.2567 117.896 23.7366 121.504C33.7986 140.146 54.5178 145.019 77.9999 138.689Z" fill="#F4ABEF"/>
<path d="M121.417 115.534C113.781 111.527 106.277 108.563 99.0066 105.714C97.6396 99.7617 95.7922 92.0725 93.4481 84.4121C93.3044 83.9236 92.8118 83.6362 92.311 83.6978C91.806 83.7758 91.4365 84.211 91.4406 84.7241C91.5268 93.2877 92.1344 101.634 92.7215 108.67L92.8118 109.791C92.8405 110.14 93.0458 110.448 93.3537 110.612L106.486 117.62C110.021 119.446 113.679 121.339 116.889 123.305C120.44 125.42 122.567 127.657 123.396 130.165C123.897 131.61 124.106 133.109 124.02 134.648C123.967 136.036 123.581 137.329 122.871 138.478C121.438 140.712 118.749 142.046 115.625 142.046C111.626 142.025 107.082 141.364 103.555 140.79C100.411 140.326 97.2619 139.813 94.0967 139.295C91.9004 138.938 89.6631 138.577 87.4175 138.228C93.5015 136.023 99.138 133.77 104.385 131.446C106.905 132.202 109.491 132.899 112.143 133.445C112.217 133.458 112.283 133.466 112.353 133.466C112.361 133.466 112.373 133.466 112.382 133.466C112.965 133.445 113.433 133.014 113.433 132.44C113.433 132.025 113.186 131.668 112.837 131.508C109.257 128.577 105.546 126.076 101.072 123.227C97.5329 121.027 93.5672 118.761 88.5998 116.101L87.553 115.538C87.3272 115.419 87.0685 115.386 86.814 115.452L85.4141 115.805C81.9616 116.68 78.2545 117.644 74.5475 118.773C71.1237 119.767 67.7779 120.904 63.7999 122.304C57.0098 124.783 49.7722 127.628 42.9 131.549C42.4895 131.783 42.2924 132.267 42.4238 132.719C42.5511 133.17 42.9944 133.474 43.4501 133.466C51.3897 133.174 59.0214 131.779 66.0988 130.309C69.6376 129.533 73.4021 128.683 77.0681 127.657C79.8022 126.93 82.6964 126.081 86.4076 124.915C90.8249 126.758 94.5483 128.203 98.1117 129.447C98.5386 129.591 99.0107 129.726 99.4459 129.874C94.9137 130.818 90.3938 131.787 85.9847 132.743C81.8836 133.638 77.7865 134.529 73.6772 135.395C70.627 136.044 67.5685 136.75 64.5101 137.456C56.9975 139.189 49.2262 140.979 41.9517 141.857C37.6494 142.415 34.1517 140.86 32.6984 137.809C32.37 137.148 32.0785 136.155 32.0005 135.436C31.9595 135.096 31.902 134.176 31.9184 133.835C31.9184 133.318 31.9718 132.817 32.0252 132.353C32.292 130.461 33.0474 128.782 34.3282 127.226C36.4588 124.631 40.1166 122.665 43.992 120.575C44.8869 120.095 45.786 119.611 46.6481 119.126L62.3343 110.875C62.6422 110.715 62.8475 110.407 62.8762 110.062L62.9624 109.077C63.8327 99.3676 64.3254 91.8632 64.5594 84.7447C64.5758 84.2274 64.2022 83.7758 63.6891 83.6978C63.1513 83.6116 62.6792 83.94 62.5437 84.4409C60.799 90.8163 59.1117 97.7994 57.252 106.392C52.8101 108.087 48.2286 109.947 43.2736 112.073C40.1659 113.383 37.7807 114.508 35.5311 115.702C33.2198 116.934 30.2435 118.687 27.7475 121.364C25.2925 123.909 23.5847 127.427 23.0593 131.019C22.932 131.894 22.8417 132.772 22.8171 133.634C22.7965 134.73 22.8171 135.051 22.8622 135.736L22.8868 136.147C23.0634 138.117 23.4985 139.78 24.3401 141.693C25.8632 145.199 28.9134 148.167 32.4726 149.62C34.6607 150.589 37.1773 151.077 39.9647 151.077C40.9295 151.077 41.9147 151.016 42.8836 150.897C48.3723 150.277 53.4013 148.91 58.266 147.58L59.6454 147.202C63.7917 146.077 67.9216 144.755 71.916 143.483L75.5492 142.329C77.5525 141.681 79.4451 141.028 81.354 140.375C88.1154 143.13 94.9219 145.593 102.09 147.687L103.703 148.109C107.357 149.066 111.129 150.063 115.399 150.363C115.814 150.396 116.232 150.412 116.659 150.412C121.101 150.412 127.046 148.59 130.416 143.466C132.021 141.052 133.002 138.13 133.179 135.252C133.392 132.353 133.027 129.521 132.132 127.049C130.494 122.521 126.803 118.547 121.417 115.534Z"  />
<path d="M145.495 124.778L144.128 123.321C139.337 118.214 134.809 113.39 130.716 108.234C129.735 107.015 128.729 105.644 127.534 103.903C127.033 103.201 126.545 102.458 126.134 101.793L119.533 89.6744C118.884 88.4592 118.244 87.2441 117.599 86.0248C114.771 80.6469 111.848 75.0884 108.055 69.6777C106.827 67.7892 104.77 65.8474 102.841 64.7513C101.043 63.6634 99.1955 62.7644 97.1798 62.0049C93.9818 60.798 90.6935 59.8661 87.1548 59.16C86.9454 57.7354 86.7032 56.3109 86.4487 54.8864C86.6457 54.7427 86.8633 54.636 87.048 54.4882C90.7263 51.6597 93.054 47.3491 93.4399 42.665C93.481 42.2134 93.4974 41.7537 93.4933 41.298C93.5138 38.9662 93.5385 36.6303 93.6206 34.2698C93.6288 33.5472 93.678 32.8206 93.7232 32.094C93.8299 30.4437 93.9449 28.7359 93.6165 26.9911C92.8365 21.6748 89.31 16.8429 84.4371 14.3839C79.3507 11.736 72.5482 11.9782 67.5521 15.0407C64.8673 16.7116 62.6751 18.9612 61.23 21.5352C59.7562 24.0764 58.9024 27.2867 58.8859 30.3657C58.8982 32.9068 58.9311 35.1319 59.0173 37.5088C59.0337 38.2847 59.083 39.0606 59.1281 39.8365L59.1979 41.0476C59.2554 42.587 59.4935 44.1593 59.8712 45.4648C61.2341 50.3008 64.8057 54.3938 69.2805 56.4874C69.1327 57.3783 68.9644 58.2691 68.833 59.16C65.3066 59.8579 62.0182 60.7898 58.8038 62.0008C56.7758 62.7726 54.9285 63.6716 53.1262 64.7595C52.0753 65.4287 51.2501 65.9788 50.1951 66.9846C49.3822 67.74 48.7418 68.5939 48.1794 69.3492L47.9577 69.6448C45.7655 72.7484 43.8073 75.9423 41.7998 79.6945L40.6709 81.7718C39.2299 84.4155 37.7972 87.0429 36.4712 89.6744L31.2165 99.486C29.3855 102.848 27.1933 105.808 25.2926 108.251C21.138 113.468 16.5401 118.362 11.6713 123.543L10.3412 124.959C10.0005 125.32 9.96762 125.87 10.2632 126.269C10.4602 126.536 10.7722 126.687 11.0884 126.687C11.2402 126.687 11.3921 126.655 11.5358 126.585C18.4327 123.235 24.8985 118.76 30.7526 113.28C33.9013 110.344 36.5451 107.22 38.5936 104.018C40.7284 100.894 42.547 97.6263 44.3122 94.4693L44.5504 94.0424C46.3854 90.7623 48.1014 87.3631 49.7599 84.0707C51.5047 80.61 53.1509 77.3381 54.8956 74.2632C55.3226 73.5571 55.729 72.9372 56.197 72.3461C56.3858 72.0833 56.9688 71.4922 57.5723 70.9954C58.7833 69.9773 60.2407 69.0824 61.7719 68.1382C64.4978 66.5125 67.5973 64.8909 71.5301 63.0518L72.4538 62.6207C72.8602 62.4319 73.0984 61.9967 73.0368 61.5492L72.9424 60.8719C72.774 59.6731 72.6098 58.614 72.4497 57.5794C73.7757 57.9079 75.1387 58.1049 76.518 58.1049C79.0551 58.1049 81.51 57.5055 83.7351 56.4751C83.4724 58.0926 83.2466 59.6198 83.0659 60.876L82.9756 61.5533C82.914 61.9967 83.1521 62.4319 83.5627 62.6207L84.4781 63.0477C88.3371 64.8499 91.5351 66.5166 94.3595 68.208C95.8538 69.1317 97.266 70.002 98.4607 71.0037C99.7046 71.993 100.32 72.9372 101.104 74.2345C102.882 77.3586 104.541 80.6551 106.298 84.1487C107.94 87.4124 109.635 90.7869 111.458 94.0424L111.967 94.9579C113.65 97.9588 115.387 101.066 117.402 104.006L119.122 106.481C119.771 107.364 120.399 108.144 121.064 108.94C122.497 110.611 124.049 112.134 125.252 113.288C131.118 118.777 137.584 123.255 144.477 126.589C144.62 126.663 144.772 126.692 144.924 126.692C144.932 126.692 144.94 126.692 144.953 126.692C145.511 126.577 146.004 126.24 146.004 125.665C145.991 125.283 145.794 124.959 145.495 124.778ZM73.8455 52.1892C70.6311 50.4609 68.3691 47.2054 67.9298 43.6626C67.8067 42.8539 67.782 42.1067 67.8559 41.0599L67.9298 39.8365C67.975 39.0606 68.0242 38.2888 68.0407 37.5293C68.1269 35.2181 68.1556 32.7262 68.1679 30.5463C68.172 27.1102 69.6253 24.0271 72.2732 21.8554C74.2068 20.2339 76.8382 19.3061 79.4902 19.3061C80.4632 19.3061 81.4361 19.4292 82.3845 19.6756C86.2393 20.628 89.4825 23.7644 90.6319 27.6644C91.0958 29.1998 91.1656 30.8788 91.2354 32.6605C91.26 33.2188 91.2847 33.7771 91.3175 34.3026C91.4037 36.6385 91.4242 38.9744 91.4407 41.3062C91.4407 41.3062 91.4407 41.3062 91.4407 41.3103C91.4407 41.7044 91.4242 42.1026 91.3955 42.4967C91.0342 46.3967 88.7189 50.0217 85.332 51.9717C83.5586 53.0226 81.4977 53.5809 79.363 53.5809C77.3884 53.5727 75.4835 53.0965 73.8455 52.1892Z" />
</svg>
