<svg width="181" height="120" viewBox="0 0 181 120" fill="none" xmlns="http://www.w3.org/2000/svg">
<path d="M90.511 41.6152C64.419 41.6152 42.287 58.3517 34.114 81.6497C37.0675 84.9002 40.483 87.8592 44.586 90.5157C57.7255 99.0242 69.3085 101.12 86.21 101.378L94.801 101.422V101.378C111.708 101.12 123.302 99.0242 136.431 90.5267C140.539 87.8647 143.955 84.9057 146.897 81.6607C138.735 58.3572 116.598 41.6152 90.511 41.6152Z" fill="#F4ABEF"/>
<path d="M172.285 96.0659C164.915 95.0649 157.584 95.1419 150.604 96.2474C143.575 97.3749 136.981 99.8994 130.595 102.336L129.88 102.605C118.875 106.934 106.879 108.947 92.1335 108.947H90.5L89.0205 108.952C74.1925 108.952 62.1585 106.939 51.1365 102.594L50.4215 102.325C44.0415 99.8884 37.4525 97.3694 30.4235 96.2474C23.4275 95.1419 16.0795 95.0759 8.73703 96.0714L0.905029 97.1274L8.73703 98.1944C16.4645 99.2449 22.8555 100.372 28.944 102.424C33.9435 103.98 38.558 106.263 43.453 108.677C44.8445 109.365 46.247 110.058 47.6605 110.74C53.9525 113.891 61.2125 116.344 68.665 117.818C75.001 118.995 81.942 119.589 90.5 119.688H90.511H90.5275C99.322 119.573 106.06 118.99 112.357 117.791C119.782 116.339 127.031 113.897 133.334 110.734C134.781 110.047 136.2 109.348 137.591 108.661C142.475 106.252 147.084 103.964 152.106 102.413C158.194 100.356 164.58 99.2339 172.285 98.1944L180.194 97.1274L172.285 96.0659Z" fill="#231F20"/>
<path d="M44.003 91.4284C57.3845 100.096 69.3085 102.093 85.1375 102.417L94.801 102.494L95.879 102.439V102.417C111.708 102.093 123.632 100.096 137.019 91.4284C154.729 79.9554 160.202 63.1584 167.132 41.8844L170.492 31.6049H163.078C153.36 31.6049 144.345 32.2704 136.238 33.5794C136.783 31.2309 137.256 28.6569 137.729 25.4834C138.339 21.0889 138.691 16.4194 138.796 11.2164L138.955 3.37344L131.492 6.23894C125.183 8.65344 120.266 11.2494 116.015 14.3954C111.961 17.3929 108.601 20.9569 106.021 25.0214C102.061 17.5799 97.5565 10.5729 93.6075 4.62744L90.8685 0.502441L87.475 4.53394C82.745 10.1329 77.773 16.1279 73.406 22.6784C71.0795 19.5874 68.2525 16.8154 64.9855 14.4064C60.756 11.2659 55.839 8.66994 49.5195 6.23344L42.0615 3.36244L42.2045 11.2164C42.3035 16.3809 42.65 21.0504 43.2715 25.4999C43.7445 28.6679 44.223 31.2309 44.762 33.5794C36.666 32.2704 27.6515 31.6049 17.9275 31.6049H10.519L13.885 41.8899C20.815 63.1584 26.2875 79.9554 44.003 91.4284ZM110.471 84.0309C108.733 86.9624 106.313 89.4814 103.447 91.3294C100.956 91.5109 98.4695 91.6374 95.89 91.6924C96.011 75.6379 97.2485 67.8169 107.462 57.1524C109.096 55.4419 111.153 53.8194 113.589 52.3179C114.612 56.7399 115.151 61.3214 115.217 65.9634C115.074 73.1629 113.479 79.2294 110.471 84.0309ZM112.896 85.4004C115.91 79.6309 117.456 72.91 117.362 65.9744C117.417 61.1454 116.906 56.1019 115.861 50.9869C125.216 45.9764 138.592 43.1164 155.637 42.4784C149.356 61.5634 144.351 73.8779 131.184 82.4139C124.149 86.9624 117.626 89.4594 109.288 90.6914C110.713 89.0689 111.917 87.2979 112.896 85.4004ZM118.858 23.1404L128.527 19.0429C128.703 21.3804 128.929 23.5034 129.209 25.4944C129.605 28.1729 130.122 31.3024 130.914 34.5419C124.188 35.9609 118.165 37.9519 112.946 40.4709C112.137 38.1499 111.219 35.8234 110.207 33.5574C109.431 31.7974 108.584 30.0649 107.754 28.4094C108.788 27.9309 109.772 27.4359 110.768 26.9574C111.642 26.5229 112.511 26.0939 113.408 25.6704C115.223 24.7574 117.049 23.9434 118.858 23.1404ZM99.7015 49.7274C95.725 53.8799 92.7055 57.9884 90.511 62.2234C88.3165 57.9829 85.297 53.8744 81.326 49.7274C79.456 47.7804 77.113 45.8884 74.165 43.9524C74.3905 43.3034 74.6215 42.6544 74.858 42.0274C78.686 32.6334 84.043 23.6959 90.896 13.3009C96.2805 19.6919 102.254 27.1059 106.824 35.2514C107.985 37.3084 109.085 39.5414 110.102 41.9064C105.977 44.1944 102.49 46.8234 99.7015 49.7274ZM59.92 58.3569C59.2105 66.3869 59.975 73.5589 62.2025 79.6419C63.594 83.5304 65.618 87.0779 68.1205 90.0699C61.5205 88.6729 55.773 86.2694 49.8385 82.4194C36.6715 73.8889 31.661 61.5689 25.38 42.4839C40.153 43.0449 52.264 45.3219 61.3995 49.2489C60.7065 52.2574 60.2115 55.3209 59.92 58.3569ZM70.2985 59.4514C70.4635 58.0544 70.7055 56.5694 71.0575 54.8699C71.9925 55.6289 72.823 56.3879 73.5655 57.1634C83.779 67.8279 85.022 75.6489 85.132 91.7034C83.7185 91.6759 82.36 91.6264 81.029 91.5714C80.8915 91.4944 80.743 91.4229 80.6 91.3459C80.2865 91.1919 79.9675 91.0269 79.6815 90.8179C75.5235 87.8424 72.405 82.909 70.9035 76.936C69.6055 72.0685 69.4185 66.5134 70.2985 59.4514ZM65.0735 37.9904C64.936 38.3094 64.8095 38.6339 64.6885 38.9584C60.2775 37.1324 55.3825 35.6529 50.108 34.5419C50.9055 31.3079 51.417 28.1729 51.824 25.4834C52.099 23.5089 52.319 21.3859 52.495 19.0429L60.349 22.3099L62.1255 23.1074C63.946 23.9214 65.7885 24.7409 67.6365 25.6814C68.6265 26.1434 69.611 26.6329 70.612 27.1334C68.3515 30.9064 66.531 34.4759 65.0735 37.9904Z" fill="#231F20"/>
</svg>
