<svg width="278" height="200" viewBox="0 0 278 200" xmlns="http://www.w3.org/2000/svg">
<style>
    path {
      fill: #000;
    }
    @media (prefers-color-scheme: dark) {
      path {
        fill: #FFF;
      }
    }
</style>

<path d="M95.825 19.428L95.8064 19.1778C95.6192 17.3237 95.1146 15.6112 94.6457 14.1559C93.6552 11.497 92.1514 8.14051 89.1282 5.17426C88.981 5.01129 88.7638 4.93267 88.5422 4.94982C88.4622 4.94982 88.3906 4.97841 88.3149 4.9827C88.0233 5.07848 87.8289 5.34008 87.8232 5.58596C87.6802 9.33273 88.6851 12.6721 89.6385 15.5054C90.2246 17.0807 90.8121 18.6017 91.5511 20.107C91.7984 20.6974 92.1171 21.2949 92.4201 21.8868C92.8904 22.7573 93.3249 23.6108 93.608 24.5128C93.6894 24.7672 93.9339 24.9588 94.2341 24.986C94.2727 24.986 94.317 24.9917 94.3598 24.986C94.6114 24.986 94.8558 24.853 94.9816 24.6457C96.0951 22.9417 95.9508 21.0705 95.825 19.428Z" />
<path d="M210.624 6.91774C210.528 6.88343 210.423 6.84912 210.315 6.84912C210.147 6.84912 209.975 6.91774 209.836 7.05783C206.754 9.86683 204.64 13.1261 202.806 16.2425C201.933 17.8221 201.028 19.5103 200.279 21.24C199.884 22.0906 199.548 22.964 199.191 23.8403C198.873 24.6823 198.549 25.5372 198.14 26.3949C198.03 26.6322 198.089 26.9195 198.309 27.0939C198.44 27.2226 198.605 27.2826 198.782 27.2826C198.884 27.2826 198.989 27.274 199.086 27.2226C201.109 26.3105 202.466 24.7095 203.692 23.29L203.828 23.1427C205.162 21.5431 206.244 19.822 207.11 18.3696C208.641 15.6035 210.464 11.8653 211.027 7.58532C211.044 7.31657 210.9 7.05783 210.624 6.91774Z" />
<path d="M247.142 21.8209C246.997 21.7165 246.825 21.655 246.65 21.655C246.52 21.655 246.373 21.6808 246.254 21.758C242.077 24.3168 238.785 27.6375 235.837 30.8368C234.487 32.3864 232.938 34.2019 231.533 36.1003C230.884 36.9165 230.275 37.8128 229.676 38.6991C229.006 39.6469 228.337 40.6375 227.585 41.5596C227.385 41.8012 227.363 42.1428 227.525 42.4216C227.665 42.656 227.902 42.789 228.158 42.789C228.205 42.789 228.272 42.7775 228.328 42.7604C230.771 42.2014 232.727 40.6804 234.439 39.351L234.684 39.1494C236.588 37.6298 238.22 35.9587 239.717 34.352C242.237 31.4815 245.358 27.5861 247.354 22.6886C247.472 22.3827 247.382 22.0453 247.142 21.8209Z" />
<path d="M273.778 60.4967C273.689 60.1751 273.393 59.9678 273.073 59.9678H272.861C267.503 59.9678 262.466 61.1586 258.235 62.3065C252.812 63.9175 248.412 65.7344 244.39 68.0374C244.107 68.2118 243.968 68.5334 244.029 68.8565C244.104 69.161 244.364 69.394 244.694 69.4397C245.35 69.4898 245.995 69.5341 246.643 69.5341C248.611 69.5341 250.577 69.2639 252.391 68.9852C254.909 68.6006 257.387 67.9673 259.674 67.3426C263.908 66.0804 268.866 64.3678 273.479 61.3415C273.749 61.1586 273.876 60.8212 273.778 60.4967Z" />
<path d="M277.317 105.634C272.53 103.008 267.575 101.774 263.343 100.913C261.048 100.523 258.589 100.138 256.064 99.9984C255.142 99.9641 254.245 99.9126 253.314 99.9126C251.441 99.9126 249.913 100.076 248.476 100.442C248.155 100.537 247.929 100.792 247.912 101.113C247.889 101.435 248.068 101.731 248.356 101.86C252.886 103.722 257.468 105.113 262.357 106.06C265.535 106.617 269.322 107.209 273.299 107.209C274.557 107.209 275.827 107.136 277.035 107.023C277.364 106.99 277.62 106.754 277.694 106.426C277.761 106.095 277.61 105.782 277.317 105.634Z" />
<path d="M267.391 145.712C263.606 141.836 259.121 139.307 255.656 137.53C253.59 136.572 251.386 135.581 249.016 134.877L248.581 134.738C246.85 134.233 245.049 133.713 243.116 133.713C242.576 133.713 242.068 133.754 241.568 133.835C241.25 133.896 241.002 134.13 240.955 134.444C240.903 134.775 241.055 135.08 241.328 135.235C242.456 135.826 243.529 136.515 244.564 137.198C245.442 137.773 246.318 138.358 247.247 138.878C249.107 140.019 251.017 141.036 253.321 142.237C257.383 144.167 261.786 146.073 266.712 146.968C266.763 146.976 266.808 146.976 266.852 146.976C267.126 146.976 267.391 146.837 267.512 146.593C267.66 146.296 267.621 145.95 267.391 145.712Z" />
<path d="M231.552 161.681C230.391 160.377 228.969 158.916 227.282 157.68L226.99 157.491C225.461 156.395 223.721 155.175 221.517 155.175C221.512 155.175 221.438 155.175 221.438 155.175C221.119 155.175 220.856 155.367 220.752 155.654C220.639 155.924 220.709 156.246 220.92 156.455C221.725 157.248 222.339 158.126 222.96 159.081C223.365 159.655 223.752 160.24 224.191 160.785C225.213 162.256 226.334 163.612 227.609 165.099C229.861 167.629 232.574 170.491 236.278 172.655C236.405 172.7 236.523 172.742 236.653 172.742C236.817 172.742 236.979 172.692 237.109 172.588C237.352 172.397 237.452 172.092 237.37 171.788C236.091 167.428 233.591 164.081 231.552 161.681Z" />
<path d="M200.748 179.202C199.947 177.907 198.988 176.419 197.697 175.089C196.53 173.906 195.052 172.426 192.965 172.08C192.918 172.08 192.882 172.06 192.842 172.06C192.59 172.06 192.369 172.185 192.233 172.368C192.069 172.602 192.052 172.924 192.186 173.165C192.633 173.984 192.959 174.819 193.278 175.637C193.527 176.299 193.784 176.916 194.079 177.558C194.671 178.933 195.361 180.256 196.2 181.785C197.736 184.334 199.593 187.203 202.57 189.542C202.706 189.645 202.875 189.708 203.035 189.708C203.148 189.708 203.259 189.682 203.364 189.619C203.634 189.497 203.783 189.236 203.783 188.933C203.67 185.766 202.749 182.783 200.748 179.202Z" />
<path d="M62.2161 26.5925L61.9559 25.9335C61.0425 23.7163 59.8989 21.7164 58.7996 19.8709C55.822 15.2278 53.0646 12.0014 49.8526 9.46399C49.7354 9.35964 49.5696 9.30103 49.4138 9.30103C49.278 9.30103 49.1436 9.3339 49.0264 9.41968C48.7748 9.57692 48.6519 9.88999 48.7391 10.1687C50.1685 14.829 52.5172 18.8802 54.6128 22.3168C55.7778 24.1251 57.0171 26.0135 58.3508 27.8047C58.7911 28.4637 59.2943 29.1356 59.8031 29.786C60.6594 30.8825 61.4642 31.9246 62.0431 33.124C62.1604 33.3699 62.4119 33.5085 62.6821 33.5085C62.7078 33.5085 62.7392 33.4999 62.7678 33.4999C63.0723 33.4742 63.3153 33.2369 63.3639 32.9496C63.787 30.638 62.948 28.5081 62.2161 26.5925Z" />
<path d="M38.985 52.6644L38.6305 52.1683C37.7428 51.0804 36.8236 50.0726 35.8772 49.1935C33.9031 47.3008 31.7159 45.6797 29.829 44.376C24.6299 40.9337 20.3256 38.8652 15.8613 37.6816C15.7955 37.6487 15.7255 37.6487 15.664 37.6487C15.4167 37.6487 15.1694 37.7845 15.0308 38.0032C14.8549 38.2734 14.8907 38.6365 15.1094 38.8881C18.7875 42.9508 23.1132 46.0886 26.8771 48.6889C29.017 50.0812 31.1056 51.4535 33.2255 52.6901L36.4162 54.6028C36.6306 54.7329 36.8722 54.8815 37.1124 55.0288C37.9 55.4905 38.6333 55.9237 39.1051 56.6198C39.2494 56.82 39.4782 56.9243 39.7226 56.9243C39.7869 56.9243 39.867 56.9072 39.9313 56.8743C40.2501 56.8028 40.4617 56.5241 40.4617 56.1867C40.4889 54.7443 39.6897 53.6293 38.985 52.6644Z" />
<path d="M31.2151 82.4539C30.4703 81.2374 29.2152 80.7242 28.0973 80.291L27.514 80.028C26.1574 79.5848 24.8581 79.2446 23.5915 79.0102C20.8826 78.4641 18.1823 78.2897 15.8965 78.1768C15.389 78.1768 14.9001 78.1768 14.4126 78.1768C8.97333 78.1768 4.56046 78.7486 0.522093 80.0194C0.204742 80.1309 -0.00967057 80.4354 0.000335994 80.7685C0.000335994 81.0958 0.23044 81.3646 0.542073 81.4775C5.81553 82.9228 10.9346 83.2272 15.7163 83.4117C17.0286 83.4288 18.3209 83.4531 19.6132 83.4531C20.8182 83.4531 22.0262 83.4274 23.2313 83.4002L26.9452 83.2987C26.958 83.2987 26.9751 83.2987 26.9923 83.2987C27.3053 83.2987 27.5498 83.2701 27.7928 83.263C28.0401 83.263 28.2831 83.2544 28.5261 83.2544C29.0694 83.2544 29.7055 83.2987 30.2873 83.5232C30.3745 83.5746 30.4703 83.5918 30.5747 83.5918C30.7834 83.5918 30.9921 83.506 31.1408 83.323C31.3538 83.0786 31.3795 82.7326 31.2151 82.4539Z" />
<path d="M34.9741 111.549C34.0478 110.946 33.0342 110.87 32.2609 110.87C31.9006 110.87 31.5433 110.879 31.1902 110.888L30.5897 110.94C29.2031 111.079 27.8822 111.322 26.6085 111.645C23.951 112.271 21.4121 113.245 19.2778 114.13C13.5725 116.643 9.52122 119.156 6.10604 122.277C5.85873 122.497 5.79291 122.851 5.9373 123.14C6.05881 123.409 6.329 123.575 6.61062 123.575C6.64922 123.575 6.68928 123.575 6.73216 123.575C12.1273 122.661 17.0892 120.705 21.3149 118.94C23.7594 117.861 25.9452 116.88 28.1238 115.748L31.4432 114.114C31.682 114.01 31.9336 113.871 32.1952 113.741C33.0029 113.342 33.7691 112.946 34.5854 112.913C34.9084 112.905 35.1814 112.679 35.2729 112.374C35.3601 112.063 35.24 111.73 34.9741 111.549Z" />
<path d="M49.4783 138.826C49.2009 138.755 48.905 138.73 48.6048 138.73C47.6742 138.73 46.8008 139.035 46.0403 139.314L45.5171 139.502C44.3349 140.017 43.2556 140.556 42.2349 141.148C40.0777 142.381 38.1336 143.885 36.5254 145.19C33.6178 147.686 29.9525 151.129 27.2965 155.783C27.1392 156.088 27.1735 156.425 27.3965 156.668C27.5394 156.817 27.7381 156.912 27.944 156.912C28.0526 156.912 28.1527 156.895 28.2485 156.851C32.883 154.764 36.6698 151.808 39.8619 149.207C41.6002 147.728 43.2799 146.252 44.8995 144.643C45.4999 144.102 46.0918 143.514 46.6779 142.886C47.6485 141.86 48.5791 140.893 49.7084 140.184C49.9672 140.017 50.0958 139.711 50.0401 139.427C50.0001 139.122 49.7685 138.876 49.4783 138.826Z" />
<path d="M75.6549 158.489C75.5462 158.213 75.3018 158.046 75.0159 158.021C74.9988 158.021 74.8415 158.021 74.8257 158.021C73.6978 158.021 72.7773 158.62 72.0382 159.118L71.6809 159.359C70.7545 160.047 69.9597 160.776 69.2721 161.489C67.7726 162.986 66.5503 164.727 65.5511 166.211C63.8156 169.012 61.7414 172.788 61.0238 177.431C60.9752 177.727 61.1196 178.022 61.3883 178.169C61.5013 178.24 61.6356 178.265 61.7628 178.265C61.9272 178.265 62.1002 178.232 62.2361 178.11C65.6612 175.327 68.0013 171.989 69.9311 169.059C70.8546 167.579 71.9039 165.858 72.8231 164.065C73.1676 163.492 73.4792 162.842 73.7837 162.194C74.2955 161.118 74.7829 160.11 75.5306 159.265C75.7192 159.055 75.7678 158.742 75.6549 158.489Z" />
<path d="M111.328 175.757C111.18 175.586 110.963 175.488 110.746 175.488C110.659 175.488 110.576 175.506 110.49 175.53C108.25 176.313 106.842 178.139 105.604 179.74L105.152 180.313C103.73 182.217 102.629 184.207 101.656 186.068C100.056 189.382 98.1823 193.816 97.7134 198.955C97.6791 199.268 97.8577 199.564 98.1479 199.702C98.2437 199.756 98.3567 199.764 98.4582 199.764C98.6583 199.764 98.8584 199.684 98.9999 199.53C102.018 196.295 104.113 192.754 106.33 188.424C107.182 186.634 108.157 184.547 108.96 182.45C109.296 181.737 109.579 180.953 109.857 180.146C110.304 178.892 110.717 177.686 111.388 176.615C111.554 176.366 111.524 176.01 111.328 175.757Z" />
<path d="M228.879 93.7332C228.355 83.838 225.391 74.4547 220.321 66.6566C217.582 62.3795 214.4 58.6299 210.87 55.5164C207.014 52.1685 202.6 49.5939 197.738 47.8899C193.508 46.3603 188.959 45.5884 184.229 45.5884C178.747 45.5884 173.169 46.6648 168.103 48.6904C159.551 52.1585 151.706 58.0052 145.416 65.6031C142.846 68.8024 140.682 72.1503 138.962 75.5597C138.233 74.1874 137.502 72.9451 136.732 71.7872C134.783 68.7609 132.471 65.9962 129.876 63.6189C126.947 60.9171 123.855 59.0201 120.684 57.968C120.497 57.8994 120.297 57.8822 120.114 57.8822C119.428 57.8822 118.774 58.2539 118.471 58.9172C118.088 59.7421 118.398 60.7256 119.18 61.2216C121.789 62.7969 123.798 65.1771 125.572 67.5344C127.163 69.6901 128.598 72.2289 130.06 75.4625C132.307 80.6645 133.873 86.4727 134.828 93.2128C135.172 95.563 137.064 97.3885 139.432 97.6215C139.61 97.6572 139.794 97.6758 139.968 97.6758C142.627 97.6758 144.842 95.6645 145.12 93.0113L145.172 92.4909C145.776 86.5856 149.346 79.8211 154.951 73.9072C160.282 68.1676 166.517 63.9591 173.009 61.7334C176.553 60.4111 180.122 59.7692 183.639 59.7692C186.871 59.7692 189.979 60.3167 192.875 61.4046C196.449 62.7969 199.381 64.4638 201.541 66.3436C204.071 68.4807 206.478 71.2483 208.508 74.3246C212.678 80.7331 215.244 87.7778 215.891 94.6824C216.605 102.126 215.548 109.732 212.867 116.647C208.223 129.1 198.96 141.219 183.696 154.814C183.017 155.44 182.9 156.455 183.427 157.205C183.783 157.701 184.336 157.969 184.901 157.969C185.205 157.969 185.504 157.91 185.783 157.736C203.226 148.012 215.767 135.701 223.079 121.11C227.399 112.038 229.403 102.578 228.879 93.7332Z" />
<path d="M129.396 41.8367C132.099 44.5999 135.904 46.3583 139.825 46.6956C140.243 46.7285 140.649 46.7399 141.056 46.7399C145.179 46.7399 148.694 45.1232 150.917 43.7394C155.972 40.5573 159.96 35.9557 163.478 29.2098C166.782 22.5897 168.216 16.7458 167.894 11.3365C167.847 10.5202 167.261 9.84265 166.456 9.6854C166.333 9.66824 166.22 9.65967 166.1 9.65967C165.425 9.65967 164.795 10.007 164.482 10.6432C161.95 15.7108 158.745 20.2067 155.672 24.3122C151.902 29.1354 148.481 32.4934 145.238 34.539C143.355 35.7012 141.621 36.2773 139.964 36.2773C138.382 36.2773 136.816 35.7627 135.182 34.6862C131.634 32.3733 128.481 28.5107 125.143 24.4423L124.315 23.4417C123.969 23.0328 123.455 22.7912 122.93 22.7912C122.668 22.7912 122.417 22.8413 122.174 22.9542C121.426 23.2916 121.013 24.1035 121.153 24.9098C122.434 32.0516 125.123 37.5924 129.396 41.8367Z" />
<path d="M137.123 16.9656C138.835 18.4766 140.714 19.4801 143.244 20.2006C143.412 20.2635 143.574 20.2692 143.744 20.2692C144.274 20.2692 144.779 20.0348 145.128 19.6002C147.201 17.1042 147.837 14.9214 148.157 13.2602C148.487 11.3147 148.357 9.48488 147.769 7.78089C147.201 6.07976 146.187 4.5373 144.752 3.24216C142.949 1.6511 141.03 0.65758 138.497 0.0414559C138.358 0.00857685 138.205 0 138.068 0C137.519 0 136.988 0.243019 136.637 0.686171C135.05 2.75469 134.147 4.70456 133.724 7.01466C133.395 8.96453 133.536 10.7729 134.12 12.4611C134.718 14.1537 135.728 15.679 137.123 16.9656Z" />
<path d="M156.091 164.749C154.277 162.236 152.108 160.211 150.031 158.418C145.369 154.46 140.392 151.401 136.578 149.201C130.596 145.767 124.453 142.793 118.522 139.903C115.357 138.392 112.199 136.871 109.107 135.287C99.1505 130.4 91.1339 126.051 84.2308 120.563C80.1895 117.362 77.0846 114.312 74.756 111.207C72.3387 107.972 70.0943 103.918 68.2817 99.5291C66.4648 95.1391 65.3855 90.8935 65.081 86.9337C64.7637 82.7195 65.264 78.5096 66.5648 74.4426C69.1865 66.5031 75.5479 59.4484 83.5832 55.5959C88.1662 53.3015 93.2695 52.0921 98.36 52.0921C102.596 52.0921 106.687 52.8998 110.527 54.5009C110.757 54.5966 110.991 54.6424 111.227 54.6424C111.849 54.6424 112.461 54.3265 112.782 53.7461C113.238 52.9455 113.04 51.9549 112.305 51.396C106.991 47.3776 99.9568 45.1804 92.5005 45.1804C88.3177 45.1804 84.1735 45.858 80.2009 47.1703C74.7102 49.0301 69.584 52.0049 65.3526 55.7688C60.9955 59.6914 57.4603 64.659 55.1259 70.1012C50.7359 80.1106 50.783 92.7104 55.2617 104.641C57.5346 110.406 60.1706 115.32 63.3284 119.712C66.642 124.18 70.6805 128.285 75.3621 131.902C87.6916 141.268 101.223 147.111 114.298 152.746C120.016 155.207 125.415 157.545 130.727 160.162C135.883 162.694 139.777 164.938 142.985 167.284C144.819 168.63 146.502 170.084 147.994 171.59C149.285 172.92 150.499 174.694 151.323 176.466C152.469 178.963 154.097 183.693 151.994 187.301C150.473 190.076 146.389 191.842 141.038 192.095C140.123 192.145 139.39 192.866 139.321 193.774C139.25 194.676 139.873 195.475 140.764 195.667C142.708 196.051 144.465 196.259 146.109 196.259C147.172 196.259 148.213 196.163 149.222 195.999C152.577 195.475 155.586 193.867 157.699 191.457C160.295 188.485 161.121 184.833 161.357 182.275C161.623 179.267 161.257 176.135 160.254 173.022C159.263 169.958 157.946 167.304 156.091 164.749Z" />
</svg>